<svg xmlns="http://www.w3.org/2000/svg" width="36" height="24" viewBox="0 0 36 24"><g transform="translate(-53.142 144.087)"><path d="M105.029-99.645a7.868,7.868,0,0,0,2.19.856,11.435,11.435,0,0,0,1.752.3c.368.033.747.055,1.113.076l.354.021a.31.31,0,0,1,.12-.025l.233,0,.22,0c.084,0,.168,0,.251-.007.41-.028.847-.061,1.277-.12.464-.064.881-.14,1.275-.233a11.142,11.142,0,0,0,1.116-.333,5.477,5.477,0,0,0,1.47-.748,2.2,2.2,0,0,0,.66-.7.962.962,0,0,0,.117-.674,1.383,1.383,0,0,0-.406-.694,3.877,3.877,0,0,0-1.078-.745,6.891,6.891,0,0,0-1.176-.461l-.152-.044c-.257-.074-.5-.144-.747-.2-.444-.092-.831-.158-1.184-.2-.5-.061-.945-.1-1.354-.111q-.2-.007-.4-.006c-.334,0-.667.012-.981.024-.278.011-.581.036-.953.08a12.445,12.445,0,0,0-1.469.265,8.908,8.908,0,0,0-1.74.6,3.881,3.881,0,0,0-1.229.84,1.367,1.367,0,0,0-.348.576,1,1,0,0,0,.186.889A2.821,2.821,0,0,0,105.029-99.645Z" transform="translate(-38.92 -31.138)" fill="#fff"/><path d="M103.976-70.593a1.69,1.69,0,0,0,.593.785,4.723,4.723,0,0,0,1.053.636,8.692,8.692,0,0,0,1.714.573c.385.088.735.154,1.072.2.451.061.908.108,1.358.139.187.013.374.015.6.015h.51a12.228,12.228,0,0,0,1.524-.106,12.126,12.126,0,0,0,1.817-.359,7.607,7.607,0,0,0,1.821-.739,2.951,2.951,0,0,0,.918-.771,1.028,1.028,0,0,0,.24-.589c0-.2.006-.4.005-.593a6.177,6.177,0,0,1-1.18.7,9.024,9.024,0,0,1-1.472.53c-.271.071-.629.162-1,.23s-.773.128-1.184.176c-.373.043-.734.072-1.075.083q-.344.012-.689.012-.28,0-.56-.008c-.443-.013-.841-.039-1.215-.079s-.781-.1-1.22-.181c-.357-.066-.713-.147-1.058-.241a8.741,8.741,0,0,1-1.717-.656,6,6,0,0,1-.9-.562c0,.186,0,.371,0,.557A.89.89,0,0,0,103.976-70.593Z" transform="translate(-38.923 -56.02)" fill="#fff"/><path d="M114.852-81.778a11.776,11.776,0,0,1-2.179.458c-.662.073-1.251.115-1.8.13q-.142,0-.285,0c-.472,0-.936-.029-1.287-.055-.434-.032-.867-.091-1.286-.149l-.115-.016a10.093,10.093,0,0,1-1.516-.341,8.78,8.78,0,0,1-1.558-.615,5.968,5.968,0,0,1-.893-.557q0,.278,0,.556a.9.9,0,0,0,.1.391,2.163,2.163,0,0,0,.754.808,6.417,6.417,0,0,0,1.827.848,11.925,11.925,0,0,0,1.886.414,14.585,14.585,0,0,0,2.013.144h.041c.394,0,.792-.017,1.183-.051.417-.036.907-.086,1.385-.173s.939-.212,1.38-.334a6.5,6.5,0,0,0,1.395-.57,3.2,3.2,0,0,0,1.032-.813,1.066,1.066,0,0,0,.269-.633c0-.2.006-.392.005-.588a4.822,4.822,0,0,1-.4.28A8.161,8.161,0,0,1,114.852-81.778Z" transform="translate(-38.924 -47.141)" fill="#fff"/><path d="M115.1-58.826a11.16,11.16,0,0,1-1.607.412c-.45.08-.856.136-1.241.172-.5.046-1,.076-1.509.09-.083,0-.166,0-.25,0-.271,0-.557-.011-.9-.033-.381-.025-.831-.06-1.279-.127-.481-.072-.97-.165-1.454-.275a8.864,8.864,0,0,1-1.646-.555,6.246,6.246,0,0,1-1.283-.743q0,.245,0,.49a1.07,1.07,0,0,0,.2.623,2.641,2.641,0,0,0,.827.754,7.341,7.341,0,0,0,2.209.887c.432.1.886.181,1.324.256l.054.009a11.715,11.715,0,0,0,1.606.136c.163,0,.326.007.489.007.4,0,.749-.016,1.079-.049.4-.04.815-.08,1.212-.142a10.789,10.789,0,0,0,1.655-.391,7.18,7.18,0,0,0,1.387-.589,3.065,3.065,0,0,0,.973-.794,1.05,1.05,0,0,0,.253-.606c.005-.2.006-.4.006-.595a5.057,5.057,0,0,1-.463.317A8.075,8.075,0,0,1,115.1-58.826Z" transform="translate(-38.924 -64.893)" fill="#fff"/><path d="M82.279-136.973a10.662,10.662,0,0,0-10.213-7.114,10.883,10.883,0,0,0-8.629,4.154,9.089,9.089,0,0,0-1.692-.159,8.414,8.414,0,0,0-8.6,8.191,8.365,8.365,0,0,0,8.038,8.174.683.683,0,0,0,.154.017h2.227a.621.621,0,0,0,.048.232,2.211,2.211,0,0,0,.336.761,3.855,3.855,0,0,0,1.2,1.1,8.971,8.971,0,0,0,2.684,1.071c.5.119,1.008.2,1.5.287l.057.009a13.72,13.72,0,0,0,1.874.159q.277.008.554.008c.461,0,.875-.019,1.265-.057h.014c.441-.043.9-.088,1.349-.157a12.825,12.825,0,0,0,1.941-.454,8.766,8.766,0,0,0,1.689-.712,4.409,4.409,0,0,0,1.357-1.113,2.256,2.256,0,0,0,.423-.852.622.622,0,0,0,.069-.276h2.471a.687.687,0,0,0,.109-.008,7.082,7.082,0,0,0,4.671-2,6.434,6.434,0,0,0,1.974-4.627A6.8,6.8,0,0,0,82.279-136.973ZM60.347-126.908l-2.985-4.208h1.566l0-4.047,2.894.016v4.031h1.514ZM79.6-123.951a.31.31,0,0,1-.053.173,1.919,1.919,0,0,1-.377.777,3.947,3.947,0,0,1-1.261,1.029,8.437,8.437,0,0,1-1.628.686,12.483,12.483,0,0,1-1.892.442c-.445.068-.9.112-1.335.155-.39.038-.793.056-1.244.056-.182,0-.364,0-.546-.008a13.377,13.377,0,0,1-1.83-.154l-.051-.008c-.487-.081-.991-.166-1.483-.283a8.664,8.664,0,0,1-2.589-1.031,3.548,3.548,0,0,1-1.1-1,1.9,1.9,0,0,1-.3-.7.294.294,0,0,1-.033-.135v-.2c0-.01,0-.02,0-.027,0-.3,0-.6,0-.892v-7.512c0-.029,0-.051,0-.073v-.406a.314.314,0,0,1,.176-.282,2.33,2.33,0,0,1,.423-.607A4.839,4.839,0,0,1,66.015-135a10.371,10.371,0,0,1,2.013-.685,14.269,14.269,0,0,1,1.667-.3c.421-.049.765-.078,1.083-.09.344-.013.712-.026,1.085-.026.152,0,.3,0,.455.007.461.015.959.056,1.52.123.4.049.829.119,1.335.224.293.06.579.142.855.221l.163.047a8.136,8.136,0,0,1,1.388.537,4.836,4.836,0,0,1,1.352.931,2.436,2.436,0,0,1,.473.655.315.315,0,0,1,.193.29Zm2.321-2.211v-4.031H80.405L83.39-134.4l2.985,4.208H84.808l0,4.047Z" transform="translate(0)" fill="#fff"/></g></svg>