<svg xmlns="http://www.w3.org/2000/svg" xmlns:xlink="http://www.w3.org/1999/xlink" viewBox="0 0 2177.59 1359.47"><defs><linearGradient id="linear-gradient" x1="823.78" y1="483.63" x2="1522.43" y2="863.61" gradientUnits="userSpaceOnUse"><stop offset="0" stop-color="#fff"/><stop offset="1"/></linearGradient><linearGradient id="linear-gradient-2" x1="287.81" y1="220.75" x2="555.36" y2="220.75" gradientUnits="userSpaceOnUse"><stop offset="0" stop-color="#ff6565"/><stop offset="1" stop-color="#fb4fd2"/></linearGradient><linearGradient id="linear-gradient-3" x1="513.25" y1="356.22" x2="765.17" y2="356.22" gradientUnits="userSpaceOnUse"><stop offset="0" stop-color="#8260f9"/><stop offset="1" stop-color="#465dd7"/></linearGradient><linearGradient id="linear-gradient-4" x1="136.7" y1="305.55" x2="293.06" y2="305.55" xlink:href="#linear-gradient-3"/><linearGradient id="linear-gradient-5" x1="35.81" y1="679.75" x2="303.36" y2="679.75" xlink:href="#linear-gradient-3"/><linearGradient id="linear-gradient-6" x1="261.25" y1="815.22" x2="513.17" y2="815.22" xlink:href="#linear-gradient-2"/><linearGradient id="linear-gradient-7" x1="261.25" y1="541.41" x2="513.17" y2="541.41" xlink:href="#linear-gradient-3"/><linearGradient id="linear-gradient-8" x1="1493.9" y1="414.11" x2="1245.39" y2="806.81" xlink:href="#linear-gradient-3"/><linearGradient id="linear-gradient-9" x1="1338.62" y1="741.59" x2="1551.23" y2="741.59" xlink:href="#linear-gradient-3"/><linearGradient id="linear-gradient-10" x1="1517.65" y1="372.39" x2="1719.13" y2="372.39" xlink:href="#linear-gradient-2"/><linearGradient id="linear-gradient-11" x1="1687.8" y1="427.19" x2="1951.81" y2="427.19" xlink:href="#linear-gradient-2"/><linearGradient id="linear-gradient-12" x1="1517.44" y1="783.06" x2="1929.11" y2="783.06" xlink:href="#linear-gradient-3"/><linearGradient id="linear-gradient-13" x1="1517.65" y1="612.38" x2="1719.13" y2="612.38" xlink:href="#linear-gradient-2"/><linearGradient id="linear-gradient-14" x1="2038.82" y1="93.85" x2="1537.2" y2="412.92" xlink:href="#linear-gradient-3"/><linearGradient id="linear-gradient-15" x1="1980.75" y1="225.75" x2="1682.73" y2="415.31" xlink:href="#linear-gradient-3"/><linearGradient id="linear-gradient-16" x1="1687.29" y1="608.33" x2="2099.76" y2="608.33" xlink:href="#linear-gradient-3"/><linearGradient id="linear-gradient-17" x1="693.95" y1="-5076.99" x2="756.56" y2="-5219.4" gradientTransform="translate(2503.22 -4548.54) rotate(180)" xlink:href="#linear-gradient-3"/><linearGradient id="linear-gradient-18" x1="829.02" y1="-5182.18" x2="1270.06" y2="-5182.18" gradientTransform="translate(2503.22 -4548.54) rotate(180)" xlink:href="#linear-gradient-2"/><linearGradient id="linear-gradient-19" x1="818.97" y1="-5181.99" x2="1278.28" y2="-5181.99" gradientTransform="translate(2503.22 -4548.54) rotate(180)" xlink:href="#linear-gradient-3"/><linearGradient id="linear-gradient-20" x1="777.68" y1="-5427.85" x2="676.13" y2="-5085.79" gradientTransform="translate(2503.22 -4548.54) rotate(180)" gradientUnits="userSpaceOnUse"><stop offset="0" stop-color="#ff7d42"/><stop offset="1" stop-color="#f34437"/></linearGradient><linearGradient id="linear-gradient-21" x1="829.02" y1="-5306.72" x2="1270.06" y2="-5306.72" gradientTransform="translate(2503.22 -4548.54) rotate(180)" xlink:href="#linear-gradient-2"/><linearGradient id="linear-gradient-22" x1="818.97" y1="-5305.88" x2="1278.28" y2="-5305.88" xlink:href="#linear-gradient-20"/><linearGradient id="linear-gradient-23" x1="603.17" y1="-5430.89" x2="854.87" y2="-5430.89" gradientTransform="translate(2503.22 -4548.54) rotate(180)" xlink:href="#linear-gradient-2"/><linearGradient id="linear-gradient-24" x1="586.08" y1="-5432.88" x2="696.86" y2="-5431.67" gradientTransform="translate(2503.22 -4548.54) rotate(180)" xlink:href="#linear-gradient-3"/><linearGradient id="linear-gradient-25" x1="829.02" y1="-5433.99" x2="1270.06" y2="-5433.99" gradientTransform="translate(2503.22 -4548.54) rotate(180)" xlink:href="#linear-gradient-2"/><linearGradient id="linear-gradient-26" x1="818.97" y1="-5479.38" x2="1278.28" y2="-5479.38" gradientTransform="translate(2503.22 -4548.54) rotate(180)" xlink:href="#linear-gradient-3"/><linearGradient id="linear-gradient-27" x1="818.97" y1="-5388.29" x2="1278.28" y2="-5388.29" gradientTransform="translate(2503.22 -4548.54) rotate(180)" xlink:href="#linear-gradient-3"/><linearGradient id="linear-gradient-28" x1="684.7" y1="756.93" x2="663.7" y2="725.83" gradientTransform="matrix(-1, 0, 0, 1, 2503.22, 175.77)" xlink:href="#linear-gradient-20"/><linearGradient id="linear-gradient-29" x1="678.85" y1="748.26" x2="648.07" y2="702.69" gradientTransform="matrix(-1, 0, 0, 1, 2503.22, 175.77)" xlink:href="#linear-gradient-3"/><linearGradient id="linear-gradient-30" x1="694.77" y1="130.92" x2="1361.41" y2="1230.17" gradientUnits="userSpaceOnUse"><stop offset="0" stop-color="#56328c"/><stop offset="1" stop-color="#361c4f"/></linearGradient><linearGradient id="linear-gradient-31" x1="552.46" y1="217.22" x2="1219.11" y2="1316.49" xlink:href="#linear-gradient-30"/><mask id="mask" x="556.03" y="276.74" width="953.32" height="641.51" maskUnits="userSpaceOnUse"><rect x="556.03" y="276.74" width="953.32" height="641.03" fill="url(#linear-gradient)"/></mask><linearGradient id="linear-gradient-32" x1="1865.86" y1="-1268.38" x2="2007.23" y2="-989.3" gradientTransform="translate(-830.63 861.78) rotate(26.73)" gradientUnits="userSpaceOnUse"><stop offset="0" stop-color="#ba746f"/><stop offset="1" stop-color="#cd6bc2"/></linearGradient><linearGradient id="linear-gradient-33" x1="1815.5" y1="-1254.04" x2="1949.58" y2="-989.35" xlink:href="#linear-gradient-32"/><linearGradient id="linear-gradient-34" x1="1765.6" y1="-1233.99" x2="1894.66" y2="-979.23" xlink:href="#linear-gradient-32"/><linearGradient id="linear-gradient-35" x1="1718.98" y1="-1202.85" x2="1825.33" y2="-992.9" xlink:href="#linear-gradient-32"/><linearGradient id="linear-gradient-36" x1="1500.98" y1="-1095.65" x2="1546.19" y2="-1006.4" xlink:href="#linear-gradient-32"/><linearGradient id="linear-gradient-37" x1="1556.32" y1="-1078.22" x2="1575.03" y2="-1041.3" xlink:href="#linear-gradient-32"/><linearGradient id="linear-gradient-38" x1="1415.68" y1="-1113.32" x2="1496.49" y2="-953.8" xlink:href="#linear-gradient-32"/><linearGradient id="linear-gradient-39" x1="1329.72" y1="-1134.7" x2="1444.26" y2="-908.6" xlink:href="#linear-gradient-32"/><linearGradient id="linear-gradient-40" x1="1241.56" y1="-1146.28" x2="1383.12" y2="-866.84" xlink:href="#linear-gradient-32"/><linearGradient id="linear-gradient-41" x1="1161.1" y1="-1148.97" x2="1317.45" y2="-840.33" xlink:href="#linear-gradient-32"/><linearGradient id="linear-gradient-42" x1="1082.57" y1="-1128.84" x2="1246.68" y2="-804.88" xlink:href="#linear-gradient-32"/><linearGradient id="linear-gradient-43" x1="1864.28" y1="-1276.55" x2="1927.81" y2="-1276.55" gradientTransform="translate(-846.74 478.82) rotate(36.35)" gradientUnits="userSpaceOnUse"><stop offset="0" stop-color="#d074ba"/><stop offset="1" stop-color="#8c59ae"/></linearGradient><linearGradient id="linear-gradient-44" x1="1796.78" y1="-1253.52" x2="1860.31" y2="-1253.52" gradientTransform="matrix(-0.14, 0.99, -0.99, -0.14, 381.71, -1421.52)" xlink:href="#linear-gradient-43"/><linearGradient id="linear-gradient-45" x1="1726.89" y1="-1223.35" x2="1790.42" y2="-1223.35" gradientTransform="translate(-830.63 861.78) rotate(26.73)" xlink:href="#linear-gradient-43"/><linearGradient id="linear-gradient-46" x1="1663.36" y1="-1183.64" x2="1726.89" y2="-1183.64" gradientTransform="matrix(0.65, 0.76, -0.76, 0.65, -787.13, 54.37)" xlink:href="#linear-gradient-43"/><linearGradient id="linear-gradient-47" x1="1606.18" y1="-1136" x2="1669.71" y2="-1136" gradientTransform="translate(-830.63 861.78) rotate(26.73)" xlink:href="#linear-gradient-43"/><linearGradient id="linear-gradient-48" x1="1556.94" y1="-1085.17" x2="1620.47" y2="-1085.17" gradientTransform="translate(178.08 -1094.1) rotate(96.5)" xlink:href="#linear-gradient-43"/><linearGradient id="linear-gradient-49" x1="1502.94" y1="-1029.58" x2="1566.47" y2="-1029.58" gradientTransform="translate(-836.19 811.75) rotate(28.29)" xlink:href="#linear-gradient-43"/><linearGradient id="linear-gradient-50" x1="1448.93" y1="-980.35" x2="1512.46" y2="-980.35" gradientTransform="translate(501.24 -1070.3) rotate(109.44)" xlink:href="#linear-gradient-43"/><linearGradient id="linear-gradient-51" x1="1390.16" y1="-923.97" x2="1461.64" y2="-923.97" gradientTransform="matrix(0.48, 0.88, -0.88, 0.48, -637.99, -126.67)" xlink:href="#linear-gradient-43"/><linearGradient id="linear-gradient-52" x1="1342.51" y1="-881.08" x2="1413.99" y2="-881.08" gradientTransform="translate(-765.14 208.29) rotate(49.89)" xlink:href="#linear-gradient-43"/><linearGradient id="linear-gradient-53" x1="1291.69" y1="-844.55" x2="1363.16" y2="-844.55" gradientTransform="translate(-830.63 861.78) rotate(26.73)" xlink:href="#linear-gradient-43"/><linearGradient id="linear-gradient-54" x1="1226.57" y1="-811.2" x2="1307.57" y2="-811.2" gradientTransform="translate(-102.71 -586.09) rotate(91.91)" xlink:href="#linear-gradient-43"/><linearGradient id="linear-gradient-55" x1="1166.21" y1="-790.56" x2="1247.21" y2="-790.56" gradientTransform="translate(-830.63 861.78) rotate(26.73)" xlink:href="#linear-gradient-43"/><linearGradient id="linear-gradient-81" x1="1082.04" y1="-1152.69" x2="1163.05" y2="-1152.69" gradientTransform="translate(-881.93 -4.02) rotate(58)" xlink:href="#linear-gradient-43"/><linearGradient id="linear-gradient-82" x1="1170.99" y1="-1168.57" x2="1251.99" y2="-1168.57" gradientTransform="translate(-848.82 -72.7) rotate(58.97)" xlink:href="#linear-gradient-43"/><linearGradient id="linear-gradient-83" x1="1256.76" y1="-1168.57" x2="1337.76" y2="-1168.57" gradientTransform="matrix(0.31, 0.95, -0.95, 0.31, -662.71, -463.9)" xlink:href="#linear-gradient-43"/><linearGradient id="linear-gradient-84" x1="1355.23" y1="-1162.21" x2="1436.23" y2="-1162.21" gradientTransform="matrix(0.31, 0.95, -0.95, 0.31, -602.45, -509.43)" xlink:href="#linear-gradient-43"/><linearGradient id="linear-gradient-85" x1="1445.76" y1="-1143.15" x2="1526.76" y2="-1143.15" gradientTransform="matrix(0.79, 0.62, -0.62, 0.79, -864, 496.51)" xlink:href="#linear-gradient-43"/><linearGradient id="linear-gradient-86" x1="1534.71" y1="-1122.5" x2="1615.71" y2="-1122.5" gradientTransform="matrix(0.8, 0.6, -0.6, 0.8, -852.49, 519.25)" xlink:href="#linear-gradient-43"/><linearGradient id="linear-gradient-87" x1="1936.54" y1="-973.98" x2="2012.78" y2="-973.98" gradientTransform="translate(824.63 -1252.74) rotate(101.89)" xlink:href="#linear-gradient-43"/><linearGradient id="linear-gradient-88" x1="1898.42" y1="-973.98" x2="1974.66" y2="-973.98" gradientTransform="translate(-721.02 182.43) rotate(45)" xlink:href="#linear-gradient-43"/><linearGradient id="linear-gradient-89" x1="1855.54" y1="-980.34" x2="1931.77" y2="-980.34" gradientTransform="matrix(0.78, 0.63, -0.63, 0.78, -788.9, 417.57)" xlink:href="#linear-gradient-43"/><linearGradient id="linear-gradient-90" x1="1799.95" y1="-997.81" x2="1876.18" y2="-997.81" gradientTransform="translate(935.34 -1268.66) rotate(109.57)" xlink:href="#linear-gradient-43"/><linearGradient id="linear-gradient-91" x1="1741.18" y1="-1016.87" x2="1826.95" y2="-1016.87" gradientTransform="matrix(0.75, 0.66, -0.66, 0.75, -792.13, 346.7)" xlink:href="#linear-gradient-43"/><linearGradient id="linear-gradient-92" x1="1682.41" y1="-1043.08" x2="1772.95" y2="-1043.08" gradientTransform="matrix(-0.42, 0.91, -0.91, -0.42, 954.85, -1297.99)" xlink:href="#linear-gradient-43"/><linearGradient id="linear-gradient-93" x1="1618.88" y1="-1081.2" x2="1709.42" y2="-1081.2" gradientTransform="translate(67.67 -1023.87) rotate(90.24)" xlink:href="#linear-gradient-43"/><linearGradient id="linear-gradient-94" x1="-1736.14" y1="414.18" x2="-1517.77" y2="562.5" gradientTransform="matrix(-1, 0, 0, 1, 56.11, 0)" gradientUnits="userSpaceOnUse"><stop offset="0" stop-color="#271044"/><stop offset="1" stop-color="#582a76"/></linearGradient><linearGradient id="linear-gradient-95" x1="-1590.7" y1="-303.56" x2="-1570.37" y2="-303.56" gradientTransform="matrix(-0.83, -0.56, -0.56, 0.83, 346.1, 30.09)" xlink:href="#linear-gradient-94"/><linearGradient id="linear-gradient-96" x1="-1775.16" y1="667.09" x2="-1741.98" y2="567.55" gradientTransform="matrix(-1, 0, 0, 1, 56.11, 0)" gradientUnits="userSpaceOnUse"><stop offset="0" stop-color="#4294ff"/><stop offset="1" stop-color="#91d2f3"/></linearGradient><linearGradient id="linear-gradient-97" x1="-1780.72" y1="621.38" x2="-1769.33" y2="621.38" xlink:href="#linear-gradient-94"/><linearGradient id="linear-gradient-98" x1="-1787.33" y1="652.67" x2="-1768.72" y2="596.85" xlink:href="#linear-gradient-96"/><linearGradient id="linear-gradient-99" x1="-1764.4" y1="558.62" x2="-1750.52" y2="638.86" gradientTransform="matrix(-1, 0, 0, 1, 56.11, 0)" gradientUnits="userSpaceOnUse"><stop offset="0" stop-color="#ab1b81"/><stop offset="1" stop-color="#791e45"/></linearGradient><linearGradient id="linear-gradient-100" x1="-1744.8" y1="653.72" x2="-1725.06" y2="591.26" xlink:href="#linear-gradient-99"/><linearGradient id="linear-gradient-101" x1="-1744.8" y1="653.72" x2="-1725.06" y2="591.26" xlink:href="#linear-gradient-99"/><linearGradient id="linear-gradient-102" x1="-1717.03" y1="550.52" x2="-1703.18" y2="630.58" xlink:href="#linear-gradient-99"/><linearGradient id="linear-gradient-103" x1="3559.26" y1="123.33" x2="3561.49" y2="63.88" gradientTransform="translate(-1731.49 -247.71) rotate(10.28)" xlink:href="#linear-gradient-96"/><linearGradient id="linear-gradient-104" x1="3560.06" y1="62.49" x2="3558.59" y2="181.44" gradientTransform="translate(-1731.49 -247.71) rotate(10.28)" xlink:href="#linear-gradient-96"/><linearGradient id="linear-gradient-105" x1="1714.78" y1="547.95" x2="1789.61" y2="547.95" xlink:href="#linear-gradient-3"/><linearGradient id="linear-gradient-106" x1="-230.75" y1="549.48" x2="-176.99" y2="549.48" gradientTransform="matrix(-1, 0, 0, 1, 1566.1, 0)" gradientUnits="userSpaceOnUse"><stop offset="0" stop-color="#303f7e"/><stop offset="1" stop-color="#2d346b"/></linearGradient><linearGradient id="linear-gradient-107" x1="-265.13" y1="515.57" x2="-229.88" y2="550.53" xlink:href="#linear-gradient-106"/><linearGradient id="linear-gradient-108" x1="-265.13" y1="515.57" x2="-229.88" y2="550.53" xlink:href="#linear-gradient-106"/><linearGradient id="linear-gradient-109" x1="1763.18" y1="538.88" x2="1745.31" y2="555.72" gradientTransform="matrix(1, 0, 0, 1, 0, 0)" xlink:href="#linear-gradient-96"/><linearGradient id="linear-gradient-110" x1="1292.2" y1="1070.98" x2="1702.91" y2="1070.98" gradientUnits="userSpaceOnUse"><stop offset="0" stop-color="#cceaf2"/><stop offset="1" stop-color="#fff"/></linearGradient><linearGradient id="linear-gradient-111" x1="1422.79" y1="633.64" x2="1464.02" y2="633.64" gradientUnits="userSpaceOnUse"><stop offset="0" stop-color="#bbd6e8"/><stop offset="1" stop-color="#80a6b7"/></linearGradient><linearGradient id="linear-gradient-112" x1="1384.11" y1="742.61" x2="1553.1" y2="742.61" gradientTransform="translate(1658.13 -892.13) rotate(69.79)" gradientUnits="userSpaceOnUse"><stop offset="0" stop-color="#32468c"/><stop offset="1" stop-color="#1c224f"/></linearGradient><linearGradient id="linear-gradient-113" x1="1385.5" y1="739.84" x2="1554.49" y2="739.84" gradientTransform="translate(1656.44 -895.24) rotate(69.79)" xlink:href="#linear-gradient-3"/><linearGradient id="linear-gradient-114" x1="1391.44" y1="735.33" x2="1548.93" y2="735.33" xlink:href="#linear-gradient-3"/><linearGradient id="linear-gradient-115" x1="1468.5" y1="673.46" x2="1519.42" y2="673.46" xlink:href="#linear-gradient-111"/><linearGradient id="linear-gradient-116" x1="1479.27" y1="658.2" x2="1500.47" y2="572.88" xlink:href="#linear-gradient-3"/><linearGradient id="linear-gradient-117" x1="1491.6" y1="604.78" x2="1555.19" y2="438.91" gradientTransform="translate(1724.08 -994.64) rotate(76.39)" xlink:href="#linear-gradient-3"/><linearGradient id="linear-gradient-118" x1="1532.05" y1="326.06" x2="1615.51" y2="374.55" xlink:href="#linear-gradient-110"/><linearGradient id="linear-gradient-119" x1="1554.28" y1="521.01" x2="1418.35" y2="495.58" xlink:href="#linear-gradient-111"/><linearGradient id="linear-gradient-120" x1="1544.31" y1="404.67" x2="1605.25" y2="495.55" gradientTransform="translate(-54.06 354.89) rotate(-12.81)" xlink:href="#linear-gradient-3"/><linearGradient id="linear-gradient-121" x1="1579.71" y1="633.64" x2="1582.09" y2="469.89" xlink:href="#linear-gradient-110"/><linearGradient id="linear-gradient-122" x1="1551.62" y1="926.55" x2="1717.35" y2="531.91" xlink:href="#linear-gradient-110"/><linearGradient id="linear-gradient-123" x1="1541.59" y1="922.34" x2="1707.32" y2="527.69" xlink:href="#linear-gradient-110"/><linearGradient id="linear-gradient-124" x1="1606.31" y1="886.48" x2="1567.36" y2="823.69" xlink:href="#linear-gradient-110"/><linearGradient id="linear-gradient-125" x1="1462.9" y1="981.19" x2="1604.75" y2="981.19" xlink:href="#linear-gradient-110"/><linearGradient id="linear-gradient-126" x1="1459.25" y1="723.21" x2="1486.84" y2="768.69" xlink:href="#linear-gradient-2"/><linearGradient id="linear-gradient-127" x1="-1718.81" y1="778.42" x2="-1717.16" y2="802.32" gradientTransform="matrix(-1, 0, 0, 1, -493.15, 0)" gradientUnits="userSpaceOnUse"><stop offset="0" stop-color="#92f3f1"/><stop offset="1" stop-color="#a2c6ff"/></linearGradient><linearGradient id="linear-gradient-128" x1="-3676.63" y1="-2729.35" x2="-3857.45" y2="-2321.7" gradientTransform="matrix(-0.37, -0.93, -0.93, 0.37, -2513.66, -1837.06)" gradientUnits="userSpaceOnUse"><stop offset="0" stop-color="#d270e3"/><stop offset="1" stop-color="#6952f6"/></linearGradient><linearGradient id="linear-gradient-129" x1="1325.15" y1="596.7" x2="1182.7" y2="917.83" xlink:href="#linear-gradient-2"/><linearGradient id="linear-gradient-130" x1="-3743.18" y1="-2748.14" x2="-3765.51" y2="-2697.78" xlink:href="#linear-gradient-128"/><linearGradient id="linear-gradient-131" x1="-1731.38" y1="953.11" x2="-1737.05" y2="885.09" gradientTransform="matrix(-1, 0.05, 0.05, 1, -614.81, -52.79)" xlink:href="#linear-gradient-99"/><linearGradient id="linear-gradient-132" x1="-1760.34" y1="853.33" x2="-1754.93" y2="1053.26" gradientTransform="matrix(-1, 0.05, 0.05, 1, -614.81, -52.79)" xlink:href="#linear-gradient-127"/><linearGradient id="linear-gradient-133" x1="3979.8" y1="1513.8" x2="4033.26" y2="1570.15" gradientTransform="matrix(0.97, -0.26, 0.26, 0.97, -3107.81, 340.05)" xlink:href="#linear-gradient-127"/><linearGradient id="linear-gradient-134" x1="-1785.44" y1="800.71" x2="-1780.81" y2="815.5" xlink:href="#linear-gradient-127"/><linearGradient id="linear-gradient-135" x1="4383.76" y1="1089.81" x2="4368.91" y2="1040.82" gradientTransform="translate(-3174.56 -13.78) rotate(0.79)" xlink:href="#linear-gradient-112"/><linearGradient id="linear-gradient-136" x1="4370.96" y1="1080.27" x2="4370.96" y2="1001.57" gradientTransform="translate(-3174.56 -13.78) rotate(0.79)" xlink:href="#linear-gradient-20"/><linearGradient id="linear-gradient-137" x1="4398.68" y1="1077.33" x2="4398.68" y2="998.63" gradientTransform="translate(-3174.56 -13.78) rotate(0.79)" xlink:href="#linear-gradient-20"/><linearGradient id="linear-gradient-138" x1="4404.15" y1="1080.3" x2="4389.3" y2="1031.32" gradientTransform="translate(-3174.56 -13.78) rotate(0.79)" xlink:href="#linear-gradient-112"/><linearGradient id="linear-gradient-139" x1="4364.16" y1="910.45" x2="4356.93" y2="1073.07" gradientTransform="translate(-3174.56 -13.78) rotate(0.79)" xlink:href="#linear-gradient-3"/><linearGradient id="linear-gradient-140" x1="4364.16" y1="910.45" x2="4356.93" y2="1073.07" gradientTransform="translate(-3174.56 -13.78) rotate(0.79)" xlink:href="#linear-gradient-3"/><linearGradient id="linear-gradient-141" x1="4495.05" y1="977.69" x2="4335.75" y2="970.45" gradientTransform="translate(-3174.56 -13.78) rotate(0.79)" xlink:href="#linear-gradient-3"/><linearGradient id="linear-gradient-142" x1="-1739.89" y1="848.09" x2="-1711.2" y2="997.47" gradientTransform="matrix(-1, 0, 0, 1, -493.15, 0)" gradientUnits="userSpaceOnUse"><stop offset="0" stop-color="#465dd7"/><stop offset="1" stop-color="#8260f9"/></linearGradient><linearGradient id="linear-gradient-143" x1="1448.58" y1="666.29" x2="1397.55" y2="781.32" xlink:href="#linear-gradient-2"/><linearGradient id="linear-gradient-144" x1="1444.97" y1="664.69" x2="1393.95" y2="779.72" xlink:href="#linear-gradient-2"/><linearGradient id="linear-gradient-145" x1="-2032.13" y1="599.57" x2="-2204.92" y2="600.16" gradientTransform="matrix(-1, 0, 0, 1, -1596.71, 0)" gradientUnits="userSpaceOnUse"><stop offset="0.49" stop-color="#cceaf2"/><stop offset="1" stop-color="#fff"/></linearGradient><linearGradient id="linear-gradient-146" x1="712.99" y1="563.49" x2="716.72" y2="610.94" gradientTransform="matrix(-1, 0, 0, 1, 1286.76, 0)" gradientUnits="userSpaceOnUse"><stop offset="0" stop-color="#271044"/><stop offset="1" stop-color="#a02588"/></linearGradient><linearGradient id="linear-gradient-147" x1="722.62" y1="589.9" x2="721.94" y2="540.76" gradientTransform="matrix(-1, 0, 0, 1, 1286.76, 0)" gradientUnits="userSpaceOnUse"><stop offset="0" stop-color="#97ccff"/><stop offset="1" stop-color="#3e98f3"/></linearGradient><linearGradient id="linear-gradient-148" x1="783.45" y1="557.95" x2="787.18" y2="605.4" xlink:href="#linear-gradient-146"/><linearGradient id="linear-gradient-149" x1="787.19" y1="589.01" x2="786.51" y2="539.86" xlink:href="#linear-gradient-147"/><linearGradient id="linear-gradient-150" x1="710.89" y1="510.29" x2="747.23" y2="510.29" gradientTransform="matrix(-1, 0, 0, 1, 1286.76, 0)" xlink:href="#linear-gradient-3"/><linearGradient id="linear-gradient-151" x1="710.89" y1="510.29" x2="747.23" y2="510.29" gradientTransform="matrix(-1, 0, 0, 1, 1286.76, 0)" xlink:href="#linear-gradient-3"/><linearGradient id="linear-gradient-152" x1="720.98" y1="506.7" x2="794.13" y2="506.7" gradientTransform="matrix(-1, 0, 0, 1, 1286.76, 0)" xlink:href="#linear-gradient-3"/><linearGradient id="linear-gradient-153" x1="3955.29" y1="307.18" x2="3968.53" y2="307.18" gradientTransform="matrix(-0.85, 0.52, 0.52, 0.85, 3847.9, -1897.15)" xlink:href="#linear-gradient-147"/><linearGradient id="linear-gradient-154" x1="-1228.42" y1="477.72" x2="-1182.23" y2="477.72" gradientTransform="translate(1536.61 -444.79) rotate(-16.75)" xlink:href="#linear-gradient-3"/><linearGradient id="linear-gradient-155" x1="4005.35" y1="215.65" x2="4005.35" y2="164.24" gradientTransform="matrix(-0.85, 0.52, 0.52, 0.85, 3847.9, -1897.15)" xlink:href="#linear-gradient-147"/><linearGradient id="linear-gradient-156" x1="1831.7" y1="1204.71" x2="1790.21" y2="1099.33" gradientTransform="matrix(-0.8, 0.03, 0.06, 1, 1898.91, -867.87)" gradientUnits="userSpaceOnUse"><stop offset="0" stop-color="#7801e3"/><stop offset="1" stop-color="#6952f6"/></linearGradient><linearGradient id="linear-gradient-157" x1="3956.87" y1="222.61" x2="4002.55" y2="133.78" gradientTransform="matrix(-0.85, 0.52, 0.52, 0.85, 3847.9, -1897.15)" xlink:href="#linear-gradient-147"/><linearGradient id="linear-gradient-158" x1="-1283.44" y1="541.36" x2="-1176.24" y2="541.36" gradientTransform="translate(1536.61 -444.79) rotate(-16.75)" xlink:href="#linear-gradient-3"/><linearGradient id="linear-gradient-159" x1="-1179.6" y1="545.06" x2="-1130.14" y2="545.06" gradientTransform="translate(1536.61 -444.79) rotate(-16.75)" xlink:href="#linear-gradient-3"/><linearGradient id="linear-gradient-160" x1="3236.14" y1="-743.28" x2="3118.33" y2="-875.18" gradientTransform="translate(-2439.27 -166.63) rotate(23.95)" xlink:href="#linear-gradient-145"/><linearGradient id="linear-gradient-161" x1="-2802.84" y1="277.64" x2="-2799.91" y2="261.05" gradientTransform="translate(2748.82 -1228.35) rotate(-31.35)" xlink:href="#linear-gradient-147"/><linearGradient id="linear-gradient-162" x1="651.94" y1="1176.35" x2="686.94" y2="1176.35" gradientTransform="matrix(1, 0, 0, 1, 0, 0)" xlink:href="#linear-gradient-112"/><linearGradient id="linear-gradient-163" x1="1011.05" y1="981.63" x2="889.42" y2="965.51" gradientTransform="matrix(1, 0, 0, 1, 0, 0)" xlink:href="#linear-gradient-145"/><linearGradient id="linear-gradient-164" x1="894.15" y1="1104.63" x2="1336.55" y2="509.99" xlink:href="#linear-gradient-2"/><linearGradient id="linear-gradient-165" x1="996.52" y1="820.13" x2="963.52" y2="873.13" xlink:href="#linear-gradient-2"/><linearGradient id="linear-gradient-166" x1="962.11" y1="743.15" x2="952.51" y2="769.83" gradientTransform="matrix(1, 0, 0, 1, 0, 0)" xlink:href="#linear-gradient-145"/><linearGradient id="linear-gradient-167" x1="961.09" y1="742.78" x2="951.49" y2="769.46" gradientTransform="matrix(1, 0, 0, 1, 0, 0)" xlink:href="#linear-gradient-145"/><linearGradient id="linear-gradient-168" x1="955.51" y1="771.05" x2="953.9" y2="749.22" gradientTransform="matrix(1, 0, 0, 1, 0, 0)" xlink:href="#linear-gradient-145"/><linearGradient id="linear-gradient-169" x1="913.98" y1="985.87" x2="792.35" y2="969.75" gradientTransform="matrix(1, 0, 0, 1, 0, 0)" xlink:href="#linear-gradient-145"/><linearGradient id="linear-gradient-170" x1="797.95" y1="1110.16" x2="1233.8" y2="524.33" xlink:href="#linear-gradient-2"/><linearGradient id="linear-gradient-171" x1="901.5" y1="829.5" x2="863.5" y2="887.5" xlink:href="#linear-gradient-2"/><linearGradient id="linear-gradient-172" x1="865.04" y1="747.39" x2="855.44" y2="774.07" gradientTransform="matrix(1, 0, 0, 1, 0, 0)" xlink:href="#linear-gradient-145"/><linearGradient id="linear-gradient-173" x1="864.02" y1="747.03" x2="854.42" y2="773.7" gradientTransform="matrix(1, 0, 0, 1, 0, 0)" xlink:href="#linear-gradient-145"/><linearGradient id="linear-gradient-174" x1="858.44" y1="775.29" x2="856.83" y2="753.47" gradientTransform="matrix(1, 0, 0, 1, 0, 0)" xlink:href="#linear-gradient-145"/><linearGradient id="linear-gradient-175" x1="822.75" y1="988.9" x2="701.12" y2="972.78" gradientUnits="userSpaceOnUse"><stop offset="0.49" stop-color="#c3dcf2"/><stop offset="1" stop-color="#fff"/></linearGradient><linearGradient id="linear-gradient-176" x1="713.34" y1="1122.86" x2="1099.67" y2="603.58" gradientUnits="userSpaceOnUse"><stop offset="0" stop-color="#a937ff"/><stop offset="1" stop-color="#f31805"/></linearGradient><linearGradient id="linear-gradient-177" x1="755.49" y1="951.27" x2="837.37" y2="841.21" xlink:href="#linear-gradient-176"/><linearGradient id="linear-gradient-178" x1="773.81" y1="750.43" x2="764.21" y2="777.1" xlink:href="#linear-gradient-175"/><linearGradient id="linear-gradient-179" x1="772.79" y1="750.06" x2="763.19" y2="776.73" xlink:href="#linear-gradient-175"/><linearGradient id="linear-gradient-180" x1="767.22" y1="778.32" x2="765.6" y2="756.5" xlink:href="#linear-gradient-175"/><linearGradient id="linear-gradient-181" x1="727.94" y1="1223.35" x2="762.94" y2="1223.35" gradientTransform="matrix(1, 0, 0, 1, 0, 0)" xlink:href="#linear-gradient-112"/><linearGradient id="linear-gradient-182" x1="1039.94" y1="1187.35" x2="1074.94" y2="1187.35" gradientTransform="matrix(1, 0, 0, 1, 0, 0)" xlink:href="#linear-gradient-112"/><linearGradient id="linear-gradient-183" x1="584.05" y1="967.96" x2="646.46" y2="967.96" gradientTransform="matrix(1, 0, 0, 1, 0, 0)" xlink:href="#linear-gradient-142"/><linearGradient id="linear-gradient-184" x1="485.94" y1="1230.43" x2="502.71" y2="1230.43" gradientTransform="matrix(1, 0, 0, 1, 0, 0)" xlink:href="#linear-gradient-112"/><linearGradient id="linear-gradient-185" x1="496.09" y1="1246.89" x2="480.61" y2="1059.75" gradientTransform="matrix(1, 0, 0, 1, 0, 0)" xlink:href="#linear-gradient-147"/><linearGradient id="linear-gradient-186" x1="543.35" y1="1143.2" x2="518.6" y2="1034.91" xlink:href="#linear-gradient-3"/><linearGradient id="linear-gradient-187" x1="543.35" y1="1143.2" x2="518.6" y2="1034.91" xlink:href="#linear-gradient-3"/><linearGradient id="linear-gradient-188" x1="656.74" y1="1228.15" x2="675.49" y2="1228.15" gradientTransform="matrix(1, 0, 0, 1, 0, 0)" xlink:href="#linear-gradient-112"/><linearGradient id="linear-gradient-189" x1="655.28" y1="1233.73" x2="639.8" y2="1046.59" gradientTransform="matrix(1, 0, 0, 1, 0, 0)" xlink:href="#linear-gradient-147"/><linearGradient id="linear-gradient-190" x1="619.87" y1="1226.55" x2="598.43" y2="1039.74" xlink:href="#linear-gradient-3"/><linearGradient id="linear-gradient-191" x1="636.61" y1="795.91" x2="710.35" y2="947.55" gradientTransform="matrix(-0.98, -0.21, -0.21, 0.98, 1436.7, 321.95)" xlink:href="#linear-gradient-142"/><linearGradient id="linear-gradient-192" x1="1868.26" y1="852.46" x2="1833.89" y2="908.06" gradientTransform="translate(-1225.75 -7.91) rotate(2.02)" xlink:href="#linear-gradient-147"/><linearGradient id="linear-gradient-193" x1="509.08" y1="887.11" x2="400.94" y2="1261.1" gradientUnits="userSpaceOnUse"><stop offset="0" stop-color="#820d63"/><stop offset="1" stop-color="#42001d"/></linearGradient><linearGradient id="linear-gradient-194" x1="652.89" y1="927.11" x2="623.96" y2="992.19" gradientTransform="matrix(1, 0, 0, 1, 0, 0)" xlink:href="#linear-gradient-147"/><linearGradient id="linear-gradient-195" x1="722.74" y1="997.53" x2="693.37" y2="1063.63" gradientTransform="matrix(1, 0, 0, 1, 0, 0)" xlink:href="#linear-gradient-147"/></defs><g style="isolation:isolate"><g id="Illustration"><path d="M1069.44,896.29c-78.71,3.74-310.75,15.17-668,52-159.24,16.41-234.63,26.67-240,58-6.18,36.09,83.95,81,97,88,101.41,54.4,209,41.41,210,58,.79,13.23-68,16.73-74,45-6.93,32.5,73.9,75.24,85,81,116.25,60.32,247.14,42.09,538-8,308.45-53.12,326.92-61.15,402-56,103.38,7.09,146.15,27.73,234,8,137.87-31,260.58-132.43,246-185-11.64-42-107.64-41.27-107-60,1.08-31.27,268.87-37.24,269-52,.13-14.93-273.61-38.23-623-38-115.1.07-212.88,2.69-286.17,5.44C1116.83,894.06,1089.63,895.33,1069.44,896.29Z" fill="#465dd7" opacity="0.19" style="mix-blend-mode:multiply"/><path d="M1109.44,912.29c246.67-6.27,355.34-27.3,616-18,59.44,2.12,209.46,7.47,210,22,.64,17.21-208.85,37.93-250,42-164.49,16.26-237.64,12.47-406,20-222.75,10-334.13,14.93-412,34-194.09,47.52-249.87,114.81-408,106-98.34-5.48-217.19-39.33-218-76-1.2-54.81,261.46-108.58,444-128C850.5,896.73,837.84,919.19,1109.44,912.29Z" fill="#465dd7" opacity="0.19" style="mix-blend-mode:multiply"/><path d="M1317.44,1028.29c-12.06,1.07-65.94,6.18-68,22-2.38,18.29,66.41,36.31,64,48-4,19.57-200.33-14.61-206,8-2.59,10.35,34.94,32,74,44,88.1,27.11,130.86-11,226-8,105,3.28,108.68,51.41,194,48,106.72-4.27,218.77-84.27,210-130C1797.13,985.64,1463.44,1015.31,1317.44,1028.29Z" fill="#465dd7" opacity="0.19" style="mix-blend-mode:multiply"/><path d="M575.44,1190.29c-71.3,9.89-123.81,15.83-126,34-1.94,16.16,36.43,38.06,72,46,60.92,13.59,89.22-19.2,174-20,33.82-.32,54.11,4.66,76,8,152.24,23.2,367.41-35.36,366-70-1.22-30.25-167.59-45.11-178-46C854.37,1133.29,837.54,1153.91,575.44,1190.29Z" fill="#465dd7" opacity="0.19" style="mix-blend-mode:multiply"/><polygon points="490.29 98.1 356.55 96.49 287.81 221.08 356.55 345.01 490.29 342.13 555.36 219.81 490.29 98.1" opacity="0.5" fill="url(#linear-gradient-2)"/><polygon points="703.85 235.23 577.92 236.12 513.25 358.2 577.92 477.2 703.85 472.08 765.17 352.2 703.85 235.23" opacity="0.47" fill="url(#linear-gradient-3)" style="mix-blend-mode:multiply"/><path d="M246.2,230.7,186,228.82a16.71,16.71,0,0,0-15.23,8.76l-32.08,59.34a16.69,16.69,0,0,0-.05,15.81L171,373.43a16.73,16.73,0,0,0,14.8,8.86l60.17-.15a16.71,16.71,0,0,0,14.78-9l30.44-58.36a16.72,16.72,0,0,0,0-15.37l-30.66-59.67A16.74,16.74,0,0,0,246.2,230.7Z" opacity="0.47" fill="url(#linear-gradient-4)" style="mix-blend-mode:multiply"/><polygon points="238.29 557.1 104.55 555.49 35.81 680.08 104.55 804.01 238.29 801.13 303.36 678.81 238.29 557.1" opacity="0.15" fill="url(#linear-gradient-5)" style="mix-blend-mode:multiply"/><polygon points="451.85 694.23 325.92 695.12 261.25 817.2 325.92 936.2 451.85 931.08 513.17 811.2 451.85 694.23" opacity="0.5" fill="url(#linear-gradient-6)"/><polygon points="451.85 424.79 325.92 420.87 261.25 540.48 325.92 661.95 451.85 661.64 513.17 544.1 451.85 424.79" opacity="0.47" fill="url(#linear-gradient-7)" style="mix-blend-mode:multiply"/><polygon points="1499.36 381.23 1393.08 379.94 1338.62 490.86 1393.08 601.26 1499.36 598.98 1551.23 489.86 1499.36 381.23" opacity="0.15" fill="url(#linear-gradient-8)" style="mix-blend-mode:multiply"/><polygon points="1499.36 629.53 1393.08 632.32 1338.62 745.32 1393.08 853.64 1499.36 847.28 1551.23 736.18 1499.36 629.53" opacity="0.47" fill="url(#linear-gradient-9)" style="mix-blend-mode:multiply"/><polygon points="1669.94 267.75 1569.23 264.69 1517.65 371.69 1569.23 480.09 1669.94 479.77 1719.13 374.43 1669.94 267.75" opacity="0.5" fill="url(#linear-gradient-10)"/><polygon points="1736.7 374.66 1687.8 479.71 1906.23 479.01 1951.81 377.59 1736.7 374.66" opacity="0.5" fill="url(#linear-gradient-11)"/><polygon points="1569.02 735.41 1517.44 846.2 1883.18 824.32 1929.11 719.92 1569.02 735.41" opacity="0.15" fill="url(#linear-gradient-12)" style="mix-blend-mode:multiply"/><polygon points="1669.94 504.32 1569.23 505.03 1517.65 613.97 1569.23 720.43 1669.94 716.34 1719.13 609.15 1669.94 504.32" opacity="0.5" fill="url(#linear-gradient-13)"/><polygon points="1831.78 155.02 1736.2 150.29 1687.29 253.58 1736.2 360.08 1831.78 361.6 1878.48 259.84 1831.78 155.02" opacity="0.3" fill="url(#linear-gradient-14)" style="mix-blend-mode:screen"/><polygon points="2007.73 165.8 1852.59 155.82 1899.05 260.36 1852.59 361.86 2007.73 360.05 2049.04 264.27 2007.73 165.8" opacity="0.3" fill="url(#linear-gradient-15)" style="mix-blend-mode:screen"/><polygon points="2056.4 501.31 1687.29 503.91 1736.2 608.46 1687.29 715.34 2056.4 700.34 2099.76 599.79 2056.4 501.31" opacity="0.3" fill="url(#linear-gradient-16)" style="mix-blend-mode:screen"/><path d="M1637.66,573.29l226.93,18.08c25.88,2.33,43.55,21.92,43.55,47.68v.28c0,25.76-20.6,45.78-46.48,44.59l-233.56-6.61Z" fill="url(#linear-gradient-17)"/><path d="M1233.16,602.27l398.11-24c23.62-1.42,42.94,15.33,42.94,37.43v15c0,22.1-19.32,40.82-42.94,41.81l-398.11,16.66Z" fill="url(#linear-gradient-18)"/><path d="M1229.51,597.86,1628.1,573.4c30.81-1.89,56.15,20.05,56.15,48.93v.32c0,28.87-25.34,53.4-56.15,54.66l-398.59,16.31a4.37,4.37,0,0,1-4.57-4.43,4.84,4.84,0,0,1,4.57-4.82l398.59-17.1c24.8-1.07,45.16-20.84,45.16-44.06v-.32c0-23.23-20.36-40.92-45.16-39.44l-398.59,23.67a4.29,4.29,0,0,1-4.57-4.36A5,5,0,0,1,1229.51,597.86Z" fill="url(#linear-gradient-19)"/><path d="M1634.74,677.6l226.92,6.32c25.88,1.19,46.48,33.59,46.48,72.27v.43c0,38.67-20.6,70.56-46.48,71.09l-242.8,8.21Z" fill="url(#linear-gradient-20)"/><path d="M1233.16,700.43,1610,685.57c35.25-1.39,64.2,24.37,64.2,57.56v22.51c0,33.19-29,60.43-64.2,60.84l-376.85,4.38Z" fill="url(#linear-gradient-21)"/><path d="M1229.51,693.62l398.59-16.31c30.81-1.26,56.15,33,56.15,76.34v.48c0,43.36-25.34,78.9-56.15,79.21l-398.59,4.08c-2.52,0-4.57-3.07-4.57-6.9s2-7,4.57-7l398.59-5.26c24.8-.33,45.16-29,45.16-63.85v-.47c0-34.88-20.36-62.48-45.16-61.54l-398.59,15.13c-2.52.09-4.57-2.94-4.57-6.78S1227,693.73,1229.51,693.62Z" fill="url(#linear-gradient-22)"/><path d="M1648.35,837.14l216-4.86a34.75,34.75,0,0,1,35.69,35.1v13.45c0,19.83-15.83,36.89-35.69,38.13l-216,13.48Z" fill="url(#linear-gradient-23)"/><path d="M1678.75,832.82l182.91-5.11a45.37,45.37,0,0,1,46.48,45.77v.28c0,25.76-20.6,48-46.48,49.71l-182.91,14.3c-3.21.21-40.42-2.2-40.42-5s34.76-5,37.94-5.14l185.39-13.4c20.91-1.26,37.62-19.22,37.62-40.07v-.29A36.55,36.55,0,0,0,1861.66,837l-182.91,6c-3.19.08-40.42-2.78-40.42-5.6S1675.55,832.9,1678.75,832.82Z" fill="url(#linear-gradient-24)"/><polygon points="1233.16 842.01 1674.2 837.94 1674.2 932.98 1233.16 928.88 1233.16 842.01" fill="url(#linear-gradient-25)"/><path d="M1229.51,923.92l449.24,3.71a5.35,5.35,0,0,1,5.5,5.12,5.23,5.23,0,0,1-5.5,5l-449.24-4.59a4.65,4.65,0,0,1-4.57-4.67A4.56,4.56,0,0,1,1229.51,923.92Z" fill="url(#linear-gradient-26)"/><path d="M1229.51,837.42l449.24-4.6a5.24,5.24,0,0,1,5.5,5,5.35,5.35,0,0,1-5.5,5.12l-449.24,3.71a4.56,4.56,0,0,1-4.57-4.59A4.65,4.65,0,0,1,1229.51,837.42Z" fill="url(#linear-gradient-27)"/><path d="M1695.56,699l48.23,2.76c11.66,33.22,10.77,65.27,0,104.25l-48.23-.15C1705.23,766.09,1703.76,730.89,1695.56,699Z" fill="#fff" opacity="0.5" style="mix-blend-mode:soft-light"/><path d="M1799.54,916.39l1.53-60.16,55.37,60.95s27.14.79,22,29.11h-24l-37.85,12.25s10.85-20.25-7.52-30.33C1804.59,925.75,1803.61,919.49,1799.54,916.39Z" opacity="0.3" fill="url(#linear-gradient-28)" style="mix-blend-mode:multiply"/><path d="M1861.44,854.29l-60.37,1.94s29,22,15.52,102.31c0,0,26.33-8.37,37.78-22.69l24.07,10.44S1896.39,884.52,1861.44,854.29Z" fill="url(#linear-gradient-29)"/><path d="M1469.34,268.54,549.1,226.26c-35.56-1.64-64.66,20.3-64.66,49V957c0,28.71,29.1,50.18,64.66,48l920.24-57.17c26.82-1.67,48.39-23,48.39-47.6V315.36C1517.73,290.73,1496.16,269.77,1469.34,268.54Z" fill="url(#linear-gradient-30)"/><g opacity="0.3" style="mix-blend-mode:multiply"><path d="M1210.1,792.92C1095,652.8,1177,502.2,1051.83,411.61c-126-91.19-288-1.29-431.34-117.11a295.5,295.5,0,0,1-61.3-67.78l-10.09-.46c-35.56-1.64-64.66,20.3-64.66,49V957c0,28.71,29.1,50.18,64.66,48l920.24-57.17a53.37,53.37,0,0,0,38.1-19.45C1339.79,910.39,1255.8,848.56,1210.1,792.92Z" fill="url(#linear-gradient-31)"/></g><g mask="url(#mask)"><path d="M1373.52,880.49a6.35,6.35,0,0,1-3.37-6.93l60.55-300.28a6.35,6.35,0,1,1,12.45,2.51l-60.54,300.28a6.36,6.36,0,0,1-7.49,5A6.43,6.43,0,0,1,1373.52,880.49Z" fill="url(#linear-gradient-32)"/><path d="M1341.28,854.47a6.38,6.38,0,0,1-3.48-6.17l22.15-284a6.35,6.35,0,1,1,12.66,1l-22.14,284a6.36,6.36,0,0,1-6.83,5.84A6.43,6.43,0,0,1,1341.28,854.47Z" fill="url(#linear-gradient-33)"/><path d="M1310.08,838.75a6.34,6.34,0,0,1-3.48-5.15L1284,560.78a6.35,6.35,0,1,1,12.66-1l22.64,272.82a6.34,6.34,0,0,1-9.18,6.2Z" fill="url(#linear-gradient-34)"/><path d="M1273.27,795.31a6.29,6.29,0,0,1-3.28-4l-60.43-222.5a6.35,6.35,0,0,1,12.26-3.33L1282.25,788a6.35,6.35,0,0,1-9,7.34Z" fill="url(#linear-gradient-35)"/><path d="M929.88,657.92a6.35,6.35,0,0,1-.5-11l140.18-87.67A6.36,6.36,0,1,1,1076.3,570L936.11,657.64A6.34,6.34,0,0,1,929.88,657.92Z" fill="url(#linear-gradient-36)"/><path d="M999.55,639.66a6.35,6.35,0,0,1,.79-11.68l83.9-28.87a6.35,6.35,0,0,1,4.13,12L1004.47,640A6.3,6.3,0,0,1,999.55,639.66Z" fill="url(#linear-gradient-37)"/><path d="M855.24,682.57a6.35,6.35,0,0,1-1.82-10l153.2-166.47a6.36,6.36,0,0,1,9.35,8.61L862.77,681.2A6.36,6.36,0,0,1,855.24,682.57Z" fill="url(#linear-gradient-38)"/><path d="M793.4,699.44l-.39-.21a6.36,6.36,0,0,1-2.23-8.71L933.55,449.44a6.35,6.35,0,1,1,10.93,6.48L801.71,697A6.35,6.35,0,0,1,793.4,699.44Z" fill="url(#linear-gradient-39)"/><path d="M731.56,709.19a6.34,6.34,0,0,1-3-8L848,400.36a6.35,6.35,0,0,1,11.81,4.69L740.33,705.87a6.36,6.36,0,0,1-8.25,3.56C731.9,709.35,731.73,709.28,731.56,709.19Z" fill="url(#linear-gradient-40)"/><path d="M666.94,703.32a6.34,6.34,0,0,1-3.18-7.62L771.28,362.18a6.35,6.35,0,1,1,12.09,3.9L675.85,699.6a6.36,6.36,0,0,1-8,4.1A7.27,7.27,0,0,1,666.94,703.32Z" fill="url(#linear-gradient-41)"/><path d="M599.46,703.12a6.35,6.35,0,0,1-3.31-7.15l84.13-350.64a6.36,6.36,0,0,1,12.36,3L608.5,698.93a6.34,6.34,0,0,1-7.66,4.7A6.51,6.51,0,0,1,599.46,703.12Z" fill="url(#linear-gradient-42)"/><circle cx="1436.92" cy="574.54" r="31.77" transform="translate(-75.8 248.2) rotate(-9.62)" fill="url(#linear-gradient-43)"/><circle cx="1366.28" cy="564.74" r="31.77" transform="translate(393.95 1678.39) rotate(-71.33)" fill="url(#linear-gradient-44)"/><circle cx="1290.29" cy="560.26" r="31.77" fill="url(#linear-gradient-45)"/><circle cx="1215.69" cy="567.14" r="31.77" transform="translate(-124.55 509.66) rotate(-22.55)" fill="url(#linear-gradient-46)"/><path d="M1171.56,598.26a31.77,31.77,0,1,1-14.08-42.66A31.77,31.77,0,0,1,1171.56,598.26Z" fill="url(#linear-gradient-47)"/><circle cx="1076.36" cy="607.22" r="31.76" transform="translate(134.4 1407.2) rotate(-69.77)" fill="url(#linear-gradient-48)"/><circle cx="1003.12" cy="632.57" r="31.76" transform="translate(-16.86 27.56) rotate(-1.56)" fill="url(#linear-gradient-49)"/><circle cx="932.75" cy="652.25" r="31.77" transform="translate(167.45 1494.73) rotate(-82.71)" fill="url(#linear-gradient-50)"/><circle cx="858.44" cy="677.96" r="35.74" transform="translate(-233 605.05) rotate(-34.48)" fill="url(#linear-gradient-51)"/><circle cx="796.6" cy="694.83" r="35.74" transform="translate(-209.09 369.33) rotate(-23.16)" fill="url(#linear-gradient-52)"/><path d="M766.69,720.66a35.73,35.73,0,1,1-15.84-48A35.73,35.73,0,0,1,766.69,720.66Z" fill="url(#linear-gradient-53)"/><circle cx="665.87" cy="707.23" r="40.5" transform="translate(-255.57 1014.64) rotate(-65.17)" fill="url(#linear-gradient-54)"/><path d="M638.85,716.74a40.5,40.5,0,1,1-18-54.39A40.51,40.51,0,0,1,638.85,716.74Z" fill="url(#linear-gradient-55)"/><circle cx="1436.92" cy="574.54" r="31.77" transform="translate(-75.8 248.2) rotate(-9.62)" fill="url(#linear-gradient-43)"/><circle cx="1366.28" cy="564.74" r="31.77" transform="translate(393.95 1678.39) rotate(-71.33)" fill="url(#linear-gradient-44)"/><circle cx="1366.28" cy="564.74" r="31.77" transform="translate(393.95 1678.39) rotate(-71.33)" opacity="0.3" fill="url(#linear-gradient-44)"/><circle cx="1290.29" cy="560.26" r="31.77" fill="url(#linear-gradient-45)"/><circle cx="1290.29" cy="560.26" r="31.77" opacity="0.6" fill="url(#linear-gradient-45)" style="mix-blend-mode:multiply"/><circle cx="1215.69" cy="567.14" r="31.77" transform="translate(-124.55 509.66) rotate(-22.55)" fill="url(#linear-gradient-46)"/><circle cx="1215.69" cy="567.14" r="31.77" transform="translate(-124.55 509.66) rotate(-22.55)" opacity="0.6" fill="url(#linear-gradient-46)" style="mix-blend-mode:multiply"/><path d="M1171.56,598.26a31.77,31.77,0,1,1-14.08-42.66A31.77,31.77,0,0,1,1171.56,598.26Z" fill="url(#linear-gradient-47)"/><path d="M1171.56,598.26a31.77,31.77,0,1,1-14.08-42.66A31.77,31.77,0,0,1,1171.56,598.26Z" opacity="0.6" fill="url(#linear-gradient-47)" style="mix-blend-mode:multiply"/><circle cx="1076.36" cy="607.22" r="31.76" transform="translate(134.4 1407.2) rotate(-69.77)" fill="url(#linear-gradient-48)"/><circle cx="1076.36" cy="607.22" r="31.76" transform="translate(134.4 1407.2) rotate(-69.77)" opacity="0.6" fill="url(#linear-gradient-48)" style="mix-blend-mode:multiply"/><circle cx="1003.12" cy="632.57" r="31.76" transform="translate(-16.86 27.56) rotate(-1.56)" fill="url(#linear-gradient-49)"/><circle cx="1003.12" cy="632.57" r="31.76" transform="translate(-16.86 27.56) rotate(-1.56)" opacity="0.6" fill="url(#linear-gradient-49)" style="mix-blend-mode:multiply"/><circle cx="932.75" cy="652.25" r="31.77" transform="translate(167.45 1494.73) rotate(-82.71)" fill="url(#linear-gradient-50)"/><circle cx="932.75" cy="652.25" r="31.77" transform="translate(167.45 1494.73) rotate(-82.71)" opacity="0.6" fill="url(#linear-gradient-50)" style="mix-blend-mode:multiply"/><circle cx="858.44" cy="677.96" r="35.74" transform="translate(-233 605.05) rotate(-34.48)" fill="url(#linear-gradient-51)"/><circle cx="858.44" cy="677.96" r="35.74" transform="translate(-233 605.05) rotate(-34.48)" opacity="0.6" fill="url(#linear-gradient-51)" style="mix-blend-mode:multiply"/><circle cx="796.6" cy="694.83" r="35.74" transform="translate(-209.09 369.33) rotate(-23.16)" fill="url(#linear-gradient-52)"/><circle cx="796.6" cy="694.83" r="35.74" transform="translate(-209.09 369.33) rotate(-23.16)" opacity="0.3" fill="url(#linear-gradient-52)"/><path d="M766.69,720.66a35.73,35.73,0,1,1-15.84-48A35.73,35.73,0,0,1,766.69,720.66Z" fill="url(#linear-gradient-53)"/><path d="M766.69,720.66a35.73,35.73,0,1,1-15.84-48A35.73,35.73,0,0,1,766.69,720.66Z" opacity="0.3" fill="url(#linear-gradient-53)"/><circle cx="665.87" cy="707.23" r="40.5" transform="translate(-255.57 1014.64) rotate(-65.17)" fill="url(#linear-gradient-54)"/><circle cx="665.87" cy="707.23" r="40.5" transform="translate(-255.57 1014.64) rotate(-65.17)" opacity="0.3" fill="url(#linear-gradient-54)"/><path d="M638.85,716.74a40.5,40.5,0,1,1-18-54.39A40.51,40.51,0,0,1,638.85,716.74Z" fill="url(#linear-gradient-55)"/><path d="M638.85,716.74a40.5,40.5,0,1,1-18-54.39A40.51,40.51,0,0,1,638.85,716.74Z" fill="url(#linear-gradient-55)"/><circle cx="690.4" cy="337.24" r="40.5" transform="translate(-74.75 407.4) rotate(-31.27)" fill="url(#linear-gradient-81)"/><circle cx="776.98" cy="363.06" r="40.5" transform="translate(-73.89 470.46) rotate(-32.24)" fill="url(#linear-gradient-82)"/><circle cx="853.57" cy="401.64" r="40.5" transform="translate(-34 721.21) rotate(-45)" fill="url(#linear-gradient-83)"/><circle cx="938.66" cy="451.61" r="40.5" transform="translate(-44.41 796.01) rotate(-45)" fill="url(#linear-gradient-84)"/><circle cx="1010.94" cy="509.36" r="40.5" transform="translate(-79.82 206.56) rotate(-11.23)" fill="url(#linear-gradient-85)"/><circle cx="1081.09" cy="567.81" r="40.5" transform="translate(-83.34 200.03) rotate(-10.18)" fill="url(#linear-gradient-86)"/><circle cx="1371.04" cy="880.12" r="38.12" transform="translate(168.99 1979.87) rotate(-75.15)" fill="url(#linear-gradient-87)"/><circle cx="1336.99" cy="862.98" r="38.12" transform="translate(-203.12 462.55) rotate(-18.27)" fill="url(#linear-gradient-88)"/><circle cx="1301.55" cy="838.01" r="38.12" transform="translate(-145.89 289.19) rotate(-12.01)" fill="url(#linear-gradient-89)"/><circle cx="1259.76" cy="797.4" r="38.12" transform="translate(311.56 1947.95) rotate(-82.84)" fill="url(#linear-gradient-90)"/><circle cx="1220.11" cy="756.09" r="42.88" transform="translate(-150.08 328.39) rotate(-14.45)" fill="url(#linear-gradient-91)"/><circle cx="1233.6" cy="757.55" r="19.06" transform="translate(-79.36 147.8) rotate(-6.64)" fill="#fff" opacity="0.5" style="mix-blend-mode:soft-light"/><path d="M1287.83,794.64a13.5,13.5,0,1,1-6-18.13A13.51,13.51,0,0,1,1287.83,794.64Z" fill="#fff" opacity="0.5" style="mix-blend-mode:soft-light"/><circle cx="1181.54" cy="707.32" r="45.27" transform="translate(432.21 1862.67) rotate(-87.94)" fill="url(#linear-gradient-92)"/><circle cx="1192.93" cy="698.83" r="19.85" transform="translate(-161.86 974.48) rotate(-41.86)" fill="#fff" opacity="0.5" style="mix-blend-mode:soft-light"/><circle cx="1141.95" cy="644.7" r="45.27" transform="translate(55.52 1379.11) rotate(-63.51)" fill="url(#linear-gradient-93)"/><circle cx="694.68" cy="328.73" r="21.44" transform="translate(-57.52 171.14) rotate(-13.49)" fill="#fff" opacity="0.5" style="mix-blend-mode:soft-light"/><circle cx="781.98" cy="353.13" r="18.26" transform="translate(-65.55 219.41) rotate(-15.34)" fill="#fff" opacity="0.5" style="mix-blend-mode:soft-light"/><circle cx="858.58" cy="391.71" r="18.26" transform="translate(-79.51 288.85) rotate(-18.27)" fill="#fff" opacity="0.5" style="mix-blend-mode:soft-light"/><path d="M960,449.9a18.27,18.27,0,1,1-8.1-24.53A18.27,18.27,0,0,1,960,449.9Z" fill="#fff" opacity="0.5" style="mix-blend-mode:soft-light"/><path d="M1034.39,506.94a18.27,18.27,0,1,1-8.1-24.53A18.27,18.27,0,0,1,1034.39,506.94Z" fill="#fff" opacity="0.5" style="mix-blend-mode:soft-light"/><circle cx="1086.09" cy="557.88" r="18.26" transform="matrix(0.83, -0.55, 0.55, 0.83, -127.52, 691.96)" fill="#fff" opacity="0.5" style="mix-blend-mode:soft-light"/><path d="M1168.94,644.07a21.44,21.44,0,1,1-9.5-28.8A21.44,21.44,0,0,1,1168.94,644.07Z" fill="#fff" opacity="0.5" style="mix-blend-mode:soft-light"/></g><g style="mix-blend-mode:soft-light"><path d="M1355.81,337.66l-216.3-7.42a5.19,5.19,0,0,1-5.11-5v-.73a4.76,4.76,0,0,1,5.11-4.64l216.3,7.76a4.94,4.94,0,0,1,4.78,4.83v.71A4.53,4.53,0,0,1,1355.81,337.66Z" fill="#fff"/><path d="M1355.81,357.72,1139.51,351a5.17,5.17,0,0,1-5.11-5v-.74a4.78,4.78,0,0,1,5.11-4.65l216.3,7.08a4.92,4.92,0,0,1,4.78,4.82v.71A4.54,4.54,0,0,1,1355.81,357.72Z" fill="#fff"/><path d="M1281.67,396l-142.16-3.54a5.13,5.13,0,0,1-5.11-4.95v-.74a4.81,4.81,0,0,1,5.11-4.68l142.16,3.76a5,5,0,0,1,4.89,4.84v.72A4.66,4.66,0,0,1,1281.67,396Z" fill="#fff"/><path d="M1355.81,377.79l-216.3-6.07a5.15,5.15,0,0,1-5.11-5V366a4.79,4.79,0,0,1,5.11-4.67l216.3,6.41a4.88,4.88,0,0,1,4.78,4.79v.71A4.57,4.57,0,0,1,1355.81,377.79Z" fill="#fff"/></g><path d="M1008.35,517.53a1.49,1.49,0,0,1-1.13-.52,1.5,1.5,0,0,1,.16-2.12l126.15-108.51a1.52,1.52,0,0,1,1-.36l197.32,4.47a1.5,1.5,0,0,1-.07,3L1135.05,409,1009.33,517.17A1.5,1.5,0,0,1,1008.35,517.53Z" fill="#fff" opacity="0.66"/><path d="M699.34,869.73a1.5,1.5,0,0,1-.06-3L898.53,858l251.08-219.47a1.5,1.5,0,1,1,2,2.25L900.11,860.56a1.56,1.56,0,0,1-.92.37l-199.78,8.8Z" fill="#fff" opacity="0.66"/><g style="mix-blend-mode:soft-light"><path d="M776.52,917.55l116.55-6a5.61,5.61,0,0,0,5.49-5.28v-2.12a5,5,0,0,0-5.49-4.72l-116.55,5.81c-3.15.16-5.69,2.56-5.69,5.37v2.16C770.83,915.56,773.37,917.71,776.52,917.55Z" fill="#fff"/><path d="M710.46,896.07l182.61-8.78a5.57,5.57,0,0,0,5.49-5.25v-2.13a5,5,0,0,0-5.49-4.74l-182.61,8.46c-3.2.15-5.8,2.57-5.8,5.41v2.18C704.66,894.05,707.26,896.23,710.46,896.07Z" fill="#fff"/></g><path d="M1780.25,493.07c4.11-2.66.36-10.41.14-27.05-.27-20.39,5.15-24.2.8-32.2-5.32-9.78-18.71-13.83-27.59-14-1.95,0-2.41-1.11-18.8,3.14-29.54,7.64-36.93-.56-50.16,7.64-12.78,7.91-7.18,16.58-19.59,25.86-20.11,15-41.26-1.22-55.64,11.36-13.6,11.9-13.91,42.22.39,58.77,16.22,18.76,45.45,13.13,65,9.41,4.12-.78,24.94-5.16,46.62-21.16a124.09,124.09,0,0,0,25.47-25.27,9.17,9.17,0,0,1,5.68-3.33c3-.33,5.49,1.53,6.66,2.35C1765.47,492.85,1776.21,495.69,1780.25,493.07Z" fill="url(#linear-gradient-94)"/><path d="M1760.55,481.31c3.34-3.05,15.29,2.83,23.2,10.63,9.3,9.16,8.58,16.59,16.7,28,4,5.66,11,13.28,23.2,20l-2.6,6.5c-5.92.36-17.56.15-28.41-6.94-7.54-4.92-11.42-11.44-18.87-24.29S1756.36,485.12,1760.55,481.31Z" fill="#fff"/><path d="M1833.64,660.45l-3.81-8.08a7,7,0,0,0-2.43-2.84l-1.89-1.26s-4.5-.12-5.2,2.72c-.16,3.59,6.83,11.62,11.25,14.81.73.53,1.78,1.24,2.42.88C1835.05,666.06,1834.3,662.75,1833.64,660.45Z" fill="url(#linear-gradient-95)"/><path d="M1826.49,643.88c-.6,3.47.16,5.27,1,6.29.58.71,5.25,8.4,3.33,9.65-.87.56-6.8-6.81-7.37-7.93s-.86-.78-.89-3.57a14.3,14.3,0,0,0-.69-4.23Z" fill="url(#linear-gradient-96)"/><path d="M1833.23,616.39s4.21,5,3.52,10.54-8.06-2.55-9.09-5.27-2.23-6.6-2.23-6.6S1830.61,611.84,1833.23,616.39Z" fill="url(#linear-gradient-97)"/><path d="M1831.62,608.53s-1.14,5.85,1,8.94c1.08,1.54,2.55,2.85,2.12,4.1a2.34,2.34,0,0,1-2.32,1.35c-1.77-.18-2.76-2.91-3.45-4.83-1-2.84-1.6-8.91-1.6-8.91Z" fill="url(#linear-gradient-98)"/><path d="M1828.26,613.46l3.89-1.41a43.74,43.74,0,0,0,3.66-21.41c-2.12-23.7-24-36.26-26.47-37.6-6,3-12,7.22-12.24,12.55-.27,6.69,8.84,10.22,17.41,20C1819.65,591.47,1825.14,600.21,1828.26,613.46Z" fill="url(#linear-gradient-99)"/><path d="M1826.87,646.59a94.56,94.56,0,0,0,2-38.22c-1.87-11.88-5.66-36-21.8-45.06-3.52-2-8.56-3.73-14.69-9.2A51.76,51.76,0,0,1,1782,541.35c-21.58-6.33-41.48-3.76-50.26,7.81-1,1.34-3.56,4.24-4,8.51-1.11,9.65,8.37,21.27,19,23.7,13.52,3.08,21.37-10.8,33.34-6.19,3.35,1.3,6.2,4.5,11.88,10.9a91,91,0,0,1,12.83,18.67c4.57,9,8,15.57,8.55,24.14a23.17,23.17,0,0,0,2.53,10.38,21.6,21.6,0,0,0,6,6.94Z" fill="url(#linear-gradient-100)"/><path d="M1727.67,557.67c.49-4.27,3-7.17,4-8.51,8.78-11.57,28.68-14.14,50.26-7.81a51.76,51.76,0,0,0,10.35,12.76c6.13,5.47,11.17,7.23,14.69,9.2,9.86,5.5,15.1,16.65,18.12,27.21-4.48-6.95-8.32-8.8-11.28-8.83-4.25-.05-6.15,3.59-11.23,3.09-5.42-.53-6.66-5-11.06-5.53a8.21,8.21,0,0,0-4.88,1.09c-2.59-2.72-4.53-4.33-6.67-5.16-12-4.61-19.82,9.27-33.34,6.19C1736,578.94,1726.56,567.32,1727.67,557.67Z" opacity="0.3" fill="url(#linear-gradient-101)" style="mix-blend-mode:multiply"/><path d="M1815.69,570.79A70.72,70.72,0,0,0,1805,571c-21.53,2.13-27.46,12.78-45.26,15.38-4.21.61-23,3.35-31.06-7.48-5.83-7.78-5-21.18,1.43-26.46,2.69-2.23,5.36-2.16,22.64-2,6.51.06,13,.08,19.52.16,27.54.36,32.8-1.55,37.81,3C1812.37,555.75,1815.79,560.31,1815.69,570.79Z" fill="url(#linear-gradient-102)"/><path d="M1757.55,482.43s-21.74-6.34-31.31,4.5c-1.76,2-3.15,4.6-4.16,9.65-5.15,25.74,14.34,41.2,6.66,54.78-3,5.39-8.42,7-12.24,16.7-.64,1.64-3,7.58-.84,9.45,1.89,1.65,5-1.83,10.52-1.16,5.84.71,7.2,5.2,11.13,4.55,2.57-.43,3.67-2.62,7.45-8.07,5.47-7.9,8.2-11.85,10.16-13.24,7.73-5.46,13.7,1.66,22.52-3.75,3.19-2,15-17.18,11.54-13-8.28-10.33-10.21-18.85-10.4-24.78-.22-6.5,1.65-9.45,0-17.13a38.53,38.53,0,0,0-8.52-15.93C1769.11,484,1768,482.85,1757.55,482.43Z" fill="#fff"/><path d="M1748,461.41c.46,2.17,2.83,13.82-1.94,16.81-1,.65-3,1-7,1.77-2.6.49-4.78.78-6.31,1a15.93,15.93,0,0,0,3.13,8c6.32,8.11,19,6,20.79,5.68,6.38-1.16,12.65-3.13,14.16-4.33a32.63,32.63,0,0,0,5.2-4.6c-2.47-1.2-7.45-4.34-10.79-5.37a62.81,62.81,0,0,0-7-1.71l-1-6.75Z" fill="url(#linear-gradient-103)"/><path d="M1745.43,464.9s1.34,13.19,14.16,15.52c11.48,2.08,20.12-25.66,14.25-32.84-2-2.39-6.8-4.67-11-4.55-2.95.08-12.91,3.88-14.3,13.85-2-2.09-4.46-2.69-5.68-1.82-1.55,1.11-.72,4.34-.53,5.07A9.31,9.31,0,0,0,1745.43,464.9Z" fill="url(#linear-gradient-104)"/><path d="M1789,542.84c-1-1.24-1.9-2.46-2.72-3.65a43,43,0,0,0-11.7-2.25c-7.19-.35-11.13,1.34-16-1.6-5.56-3.35-4.58-8-9.94-10.58-5.64-2.72-9.63.36-15.06-.64-3.27-.6-7.27-2.79-11.34-9.18,3.12,15.39,12.19,26.42,6.54,36.42-3,5.39-8.42,7-12.24,16.7-.64,1.64-3,7.58-.84,9.45,1.89,1.65,5-1.83,10.52-1.16,5.84.71,7.2,5.2,11.13,4.55,2.57-.43,3.67-2.62,7.45-8.07,5.47-7.9,8.2-11.85,10.16-13.24,7.73-5.46,13.7,1.66,22.52-3.75C1780.63,553.88,1792.46,538.66,1789,542.84Z" opacity="0.15" fill="url(#linear-gradient-105)" style="mix-blend-mode:multiply"/><path d="M1795.53,545.48l-49.19,2.4a2.05,2.05,0,0,0-1.65,1l-1.36,2.18a1.6,1.6,0,0,0,1.42,2.44l52.1-2Z" fill="url(#linear-gradient-106)"/><path d="M1846.69,518.09l-50.82,1a4.27,4.27,0,0,0-3.62,2.15l-17.6,31,53.67-2.14a4.32,4.32,0,0,0,3.57-2.12l16.31-27.23A1.73,1.73,0,0,0,1846.69,518.09Z" fill="url(#linear-gradient-107)"/><path d="M1792.25,521.23a4.27,4.27,0,0,1,3.62-2.15l1.12,0a7.89,7.89,0,0,0,1.67,4.35c3.13,3.78,8.34,1.45,12.22,5.45,4.26,4.4.32,9.63,4.13,13.72,4,4.31,10.5.8,18,3.56l-1.08,1.79a4.32,4.32,0,0,1-3.57,2.12l-53.67,2.14Z" opacity="0.3" fill="url(#linear-gradient-108)" style="mix-blend-mode:multiply"/><path d="M1750.35,543.84l1.92-5.07c-7.07-1.94-16.86-4.81-26.9-8.39-1.57-.57-3.44-1.26-4-2.92-1.71-4.64,9.2-9.44,13.44-19.58,3.92-9.37,1.76-22.37-2.79-23.91-9.47-3.19-43.07,38.62-31.07,56.25C1707.68,550.19,1728.59,551.77,1750.35,543.84Z" fill="#fff"/><path d="M1752.27,538.77c4.44-2.36,9.76.06,10.1.22a13.23,13.23,0,0,1,3.84,2.75c.16.22,2.08,2.89,1.38,3.74-.56.69-2.74.12-5.36-1.51a20.64,20.64,0,0,0-4.69-.11c-3.59.33-5.24,1.46-6.54.48a3.21,3.21,0,0,1-.94-3.36A4,4,0,0,1,1752.27,538.77Z" fill="url(#linear-gradient-109)"/><path d="M1292.2,1065.79c1.23-36.1,3-69.78,12.47-71.34L1491,1032.54l200.16,4.16s3.46-2.08,6.23,19.39,5.54,56.1,5.54,56.1l-82.42,35.32S1374.62,1111.5,1292.2,1065.79Z" fill="url(#linear-gradient-110)"/><path d="M1614.79,1154.2h-.67c-79.94-3.19-164-26-220.4-44.49-61-20.06-103.92-39.66-104.34-39.85a6.76,6.76,0,1,1,5.64-12.28c.42.19,42.72,19.53,103.09,39.35,55.56,18.24,138.23,40.64,216.55,43.77a3,3,0,0,0,1.18-.19c10.93-4,66.44-24.63,86.61-35.63a6.76,6.76,0,1,1,6.47,11.87c-21,11.45-77.33,32.37-88.41,36.44A16.51,16.51,0,0,1,1614.79,1154.2Z" fill="#80a6b7"/><path d="M1396.78,1018.69s-1.38-36.71,6.93-49.18,153.76,34.63,153.76,34.63l-18,47.1Z" fill="#bbd6e8"/><path d="M1581,988.21s-117-27.7-146.14-27-31.17,8.31-31.17,8.31,94.19,16.63,133,39.48Z" fill="#fff"/><path d="M1504.14,1013.15a139.2,139.2,0,0,1-55.41,0c-29.78-6.24-105.28-22.16-118.44-22.86s-25.62,4.16-25.62,4.16,82.42,30.47,161.37,48.48,133.68,23.55,146.84,20.78,78.26-27,78.26-27,3.46-9.7-31.17-14.55S1504.14,1013.15,1504.14,1013.15Z" fill="#fff"/><path d="M1565.09,899.56c1.38,0,58.87,2.08,76.18,40.17s23.55,74.11,16.63,87.27-58.68,18.69-67.09,7.61S1565.09,899.56,1565.09,899.56Z" fill="#bbd6e8"/><path d="M1627.42,929.34s27,47.79,27,79.65l-29.78,7.62v30.48h20.78l40.86-13.86v-2.43a8.32,8.32,0,0,0-2.69-6.11c-4.33-4-12.6-12.91-14.62-24-2.77-15.24-13.16-58.18-29.79-74.11Z" fill="#fff"/><path d="M1306.74,709.09,1301,732.3a7.14,7.14,0,0,0,3.46,7.8l144.72,81.19a33.37,33.37,0,0,0,7.81,3.18l8.31,2.22a33.85,33.85,0,0,0,16.76.16l125.8-31a9.23,9.23,0,0,0,7-8.15l1.5-17Z" fill="#bbd6e8"/><path d="M1462.14,801.3c3.72.74,9.22,1.78,13.12,2.51a22,22,0,0,0,9.21-.24l130.94-31.75a1.58,1.58,0,0,0,1.14-2l-1.06-3.53a4.46,4.46,0,0,0-2.2-2.67l-148-78.09a5.57,5.57,0,0,0-1.43-.52l-13.32-2.85a5.55,5.55,0,0,0-2.11,0l-139.76,24.56a2.27,2.27,0,0,0-1.89,2.24v1.63a2.26,2.26,0,0,0,1.13,2l147.48,86.2A22.12,22.12,0,0,0,1462.14,801.3Z" fill="#fff"/><path d="M1435,606.14l-12.14,44c-.87,3.17,4.91,7.53,12.93,9.74s15.21,1.43,16.08-1.73l12.14-44Z" fill="url(#linear-gradient-111)"/><ellipse cx="1468.61" cy="742.61" rx="36.29" ry="89.04" transform="translate(264.37 1864.24) rotate(-69.79)" fill="url(#linear-gradient-112)"/><ellipse cx="1469.99" cy="739.84" rx="36.29" ry="89.04" transform="translate(267.87 1863.73) rotate(-69.79)" fill="url(#linear-gradient-113)"/><path d="M1526.38,735.17c-27.46-20.67-70.79-35.67-103-35.67a82.07,82.07,0,0,0-12.28.86c-11.11,1.69-18.06,5.72-19.63,11.33,2.94-4,9.16-6.8,18-8.15a82.07,82.07,0,0,1,12.28-.86c32.24,0,75.57,15,103,35.67,15.79,11.88,24.31,24.37,22.24,32.59,0,.07,0,.14-.07.22a9.69,9.69,0,0,0,1.66-3.4C1550.69,759.54,1542.17,747.05,1526.38,735.17Z" opacity="0.6" fill="url(#linear-gradient-114)" style="mix-blend-mode:multiply"/><path d="M1404.09,701.89l1.16-.33C1404.85,701.66,1404.47,701.78,1404.09,701.89Z" fill="#fff" opacity="0.97" style="mix-blend-mode:soft-light"/><path d="M1402.31,702.47c.39-.14.79-.28,1.2-.41C1403.1,702.19,1402.7,702.33,1402.31,702.47Z" fill="#fff" opacity="0.97" style="mix-blend-mode:soft-light"/><path d="M1547,771.16c0-.08,0-.15.07-.22,2.07-8.22-6.45-20.71-22.24-32.59-27.46-20.67-70.79-35.67-103-35.67a82.07,82.07,0,0,0-12.28.86c-8.88,1.35-15.1,4.2-18,8.15a11.62,11.62,0,0,1,5-6.39,11.53,11.53,0,0,0-5.11,6.61c-2.07,8.22,6.45,20.71,22.23,32.59,27.46,20.67,70.8,35.67,103,35.67a81.84,81.84,0,0,0,12.27-.86c9.44-1.44,15.87-4.56,18.56-8.91C1547.31,770.66,1547.14,770.91,1547,771.16Z" fill="#fff" opacity="0.97" style="mix-blend-mode:soft-light"/><path d="M1408.18,700.88l.85-.17Z" fill="#fff" opacity="0.97" style="mix-blend-mode:soft-light"/><path d="M1406,701.37l1-.26Z" fill="#fff" opacity="0.97" style="mix-blend-mode:soft-light"/><path d="M1400.65,703.11c.4-.17.81-.34,1.24-.49C1401.46,702.77,1401.05,702.94,1400.65,703.11Z" fill="#fff" opacity="0.97" style="mix-blend-mode:soft-light"/><path d="M1399.14,703.79c.4-.2.8-.39,1.23-.57C1399.94,703.4,1399.54,703.59,1399.14,703.79Z" fill="#fff" opacity="0.97" style="mix-blend-mode:soft-light"/><path d="M1548.32,768.71c-.07.18-.15.36-.23.53C1548.17,769.07,1548.25,768.89,1548.32,768.71Z" fill="#fff" opacity="0.97" style="mix-blend-mode:soft-light"/><path d="M1547.93,769.59c-.12.23-.24.46-.38.69C1547.69,770.05,1547.81,769.82,1547.93,769.59Z" fill="#fff" opacity="0.97" style="mix-blend-mode:soft-light"/><path d="M1396.52,705.28c.36-.25.75-.49,1.15-.72C1397.27,704.79,1396.88,705,1396.52,705.28Z" fill="#fff" opacity="0.97" style="mix-blend-mode:soft-light"/><path d="M1397.76,704.51c.39-.22.79-.44,1.21-.65C1398.55,704.07,1398.15,704.29,1397.76,704.51Z" fill="#fff" opacity="0.97" style="mix-blend-mode:soft-light"/><path d="M1490.41,626.92,1468.58,709c-.87,3.17,4.92,7.53,12.93,9.73s15.21,1.44,16.08-1.73l21.83-82.09Z" fill="url(#linear-gradient-115)"/><path d="M1562.42,627.25c-3,12.4-37.27,14.75-76.53,5.24s-68.66-27.26-65.66-39.66c1.43-5.88,1.94-16.94,14.65-18.1,14-1.29,41.25,7.87,61.88,12.86C1536,597.09,1565.42,614.85,1562.42,627.25Z" fill="url(#linear-gradient-116)"/><ellipse cx="1494.09" cy="598.27" rx="23.1" ry="73.14" transform="translate(561.13 1909.68) rotate(-76.39)" fill="url(#linear-gradient-117)"/><path d="M1630.79,284.5c1.9-8.38-16.59-19.74-41.31-25.36s-46.3-3.38-48.21,5l-.9,4c-1.91,8.39,16.58,19.74,41.3,25.36s46.31,3.39,48.21-5C1630,287.79,1630.63,285.17,1630.79,284.5Z" fill="#80a6b7"/><path d="M1587.23,269c-23.33-5.3-43.52-4-45.1,2.94l-31.22,137.28,84.49,19.21,31.22-137.28C1628.19,284.26,1610.56,274.35,1587.23,269Z" fill="url(#linear-gradient-118)"/><path d="M1508.75,612.56c-24.24-5.51-42.56-15.81-40.92-23l40.75-177.27,87.78,20-40.75,177.27C1554,616.71,1533,618.07,1508.75,612.56Z" fill="url(#linear-gradient-119)"/><rect x="1506.29" y="409.2" width="94.19" height="18.01" rx="4" transform="translate(131.42 -334.06) rotate(12.81)" fill="url(#linear-gradient-120)"/><path d="M1522.14,598.28l9.7,13.16-5.7,39.8a8,8,0,0,0,4.34,8.28l32.24,16.12,76.85-164-54.94-28.33s-8.25,7.61-29.8,5.54a10.38,10.38,0,0,0-11.16,8.16Z" fill="url(#linear-gradient-121)"/><path d="M1595.33,517.88l-34.24,152.47a5.65,5.65,0,0,0,5.66,6.89c9.24-.27,25.77-1.68,40-7.79a5.69,5.69,0,0,0,3.29-4l33-147.75a5.65,5.65,0,0,0-5.92-6.87l-36.72,2.62A5.66,5.66,0,0,0,1595.33,517.88Z" fill="#fff"/><path d="M1524.22,919l15.93-76.18s22.17,28.39,42.94,31.86,41.56-2.77,56.1-63.72c13.74-57.57,6.47-179.38-48.06-164.73a6.32,6.32,0,0,1-7.75-7.42l20.24-98.21a11.53,11.53,0,0,1,5.73-7.77c6.63-3.64,19-7.84,29.65,3.16,0,0,86.08,105.28,68.76,250s-111.51,184.24-111.51,184.24Z" fill="url(#linear-gradient-122)"/><path d="M1680.06,795c15.67-144.6-43.2-223.5-76.14-255.57a10.59,10.59,0,0,0-.3,1.14l-20.24,98.21a6.32,6.32,0,0,0,7.75,7.42c54.53-14.65,61.8,107.16,48.06,164.73-14.54,61-35.32,67.18-56.1,63.72s-42.94-31.86-42.94-31.86L1524.22,919l55.68,39.62C1623.12,939,1669.27,894.55,1680.06,795Z" opacity="0.3" fill="url(#linear-gradient-123)" style="mix-blend-mode:multiply"/><path d="M1525.34,801.79l-3,14.14a3.59,3.59,0,0,0,.18,2.05c3.27,8.09,26.34,62.21,58.48,64.24,13.86.88,35.1-4.57,45.77-34.29,0,0-13.22,21.85-26.38,20.46s-32.85-27.86-25.85-73.42a2.4,2.4,0,0,0-.87-2.25l-1.63-1.31a2,2,0,0,0-1.67-.39l-43.51,9.23A2,2,0,0,0,1525.34,801.79Z" fill="url(#linear-gradient-124)"/><path d="M1462.9,1026.8l132,33.45,63.37-16.73-7.47-33.59-26.12,6.68s-22.16-116.36-85.19-117.05c0,0-25.63-5.54-25.63,42.94S1509.62,1016.9,1462.9,1026.8Z" fill="#fff"/><path d="M1587.54,954.86c-22.69-43-46.39-51.92-59.85-52.71-6.74,4.26-13.86,14.8-13.86,40.35,0,48.49-4.21,74.4-50.93,84.3l131.9,33.43C1608.54,1035.75,1609.75,997,1587.54,954.86Z" fill="url(#linear-gradient-125)"/><path d="M1579.15,874.87c-29.69-7.59-51.26-71.15-52.41-74.57a2,2,0,0,0-1.4,1.49l-3,14.14a3.59,3.59,0,0,0,.18,2.05c3.27,8.09,26.34,62.21,58.48,64.24a41.94,41.94,0,0,0,24.52-6A63.61,63.61,0,0,1,1579.15,874.87Z" fill="#bbd6e8"/><path d="M1470.4,735.31c-6.64-2.56-7.31-4.46-13-5.32-1.7-.26-10.81-1.64-13.59,3-.15.24-1.51,2.56-.6,4.73,2.11,5,12.6.65,22.46,6.5,6.91,4.1,5.39,8.38,11.81,11.22,8.64,3.83,20.75.22,21.87-4.72.84-3.76-4.73-8-5.91-8.86C1486.49,736.55,1481.91,739.73,1470.4,735.31Z" fill="url(#linear-gradient-126)"/><path d="M1222.7,782.47s4.75,35.38-32.53,60.32l39.67,9.46s12.69-23.74,3.5-63.06Z" fill="#fff"/><path d="M1229.68,789.19s2.13-5.28,1.79-7.65-6-5.55-9.85-8.82.14,3.29,1,4.78,4,3.74,3.59,8.82Z" fill="url(#linear-gradient-127)"/><path d="M1344.08,639.33l62.24-24.8,16.09,40.37-62.24,24.81a15.48,15.48,0,0,0-9.75,14.89c1.44,42.46-24.54,83.84-58.32,97.3-42.27,16.84-80.73-16.39-101.33-68.08s-15.53-102.27,26.73-119.12c33.79-13.46,81.1-1.29,109.26,30.52A15.47,15.47,0,0,0,1344.08,639.33Z" fill="url(#linear-gradient-128)"/><path d="M1185.81,651.29c-.06.28-.13.56-.19.85-3.68,19.67-.15,44.45,9.94,69.77,15.74,39.52,41.07,65.24,67.73,68.81a53,53,0,0,0,26.9-3.6c15.49-6.17,29.65-18.84,39.88-35.67a103.84,103.84,0,0,0,15.21-56.67,20.66,20.66,0,0,1,13-19.85l57.47-22.9-.3-.74Z" fill="url(#linear-gradient-129)"/><g opacity="0.3" style="mix-blend-mode:soft-light"><path d="M1215.38,704.62c4.2,10.44,12.87,32,35.59,42.17,13.75,6.16,38.53,10.8,52.46-1.76,21.14-19.06.51-62.56,19.85-73.84,8.79-5.13,14.07,3.28,31.12-1.06,18.81-4.78,22-17.43,38.37-23.79,5.88-2.29,14.08-4,25.25-2.45l4.39,11-62.24,24.81a15.48,15.48,0,0,0-9.75,14.89c1.44,42.46-24.54,83.84-58.32,97.3-42.27,16.84-80.73-16.39-101.33-68.08s-15.53-102.27,26.73-119.12a74.62,74.62,0,0,1,7.44-2.49C1214.51,623.18,1199.2,664.4,1215.38,704.62Z" fill="#fff"/></g><path d="M1399.35,619.26l14.74,37a6.92,6.92,0,0,0,12.85-5.12l-14.75-37a6.91,6.91,0,1,0-12.84,5.12Z" fill="url(#linear-gradient-130)"/><path d="M1181.6,795.74c4.71-9.28,6.65-9.23,7.81-14.12,2.63-11.16-4.17-25.33-9.94-25.53-3.72-.12-4,5.66-11.91,14.67-9.65,11-15.5,9.6-21.18,19.19-1.33,2.24-7.31,12.33-3.63,19.87,4.69,9.61,23.19,11.13,30.92,3.72C1177.34,810,1175.8,807.16,1181.6,795.74Z" fill="url(#linear-gradient-131)"/><path d="M1167.73,805.75s3.31,17.63,1,32c-2.12,13-5.07,18.8-9.67,22.66s-8.85,15.66,6.56,13.64,57.61-15.52,64-23-7.47-3.82-19.14-5.24-22.81-21-23.15-31S1167.73,805.75,1167.73,805.75Z" fill="url(#linear-gradient-132)"/><path d="M1172.76,818.9s11.8,5.18,22.25-3.17c9.35-7.48-4.56-30.47-14.08-30.76-3.17-.1-7.81,2.18-10.54,5.5-1.62,2-1.72,3.28-4.42,6.44-2.49,2.91-3.59,3.18-4,4.59-.47,1.77.34,4.73,6.75,9.82-3.19-.59-6,.25-7,2.11a4.16,4.16,0,0,0-.42,2.19C1161.7,819.08,1166.23,820.69,1172.76,818.9Z" fill="url(#linear-gradient-133)"/><path d="M1288.87,800.34s3-.41,2-6.05c-.72-4.43-.18-5.92.87-5.13s1.19,3.34,1.19,3.34a20.92,20.92,0,0,0,5.38-7.51c1.57-4.25,2.57-.67,2.91,1.46s-2.24,8.74-3.7,10-3.58,6.66-3.58,6.66Z" fill="url(#linear-gradient-134)"/><path d="M1179.58,1112.48c-1.52,3.1-1.1,4.43-.72,5,1.11,1.72,3.78.09,10.76.92a11.65,11.65,0,0,0,4.33-.15c1.66-.4,3.63-1.28,3.55-1.73,0-.16-.33-.23-.44-.25-1.94-.42-14-4.13-14-4.13Z" fill="url(#linear-gradient-135)"/><path d="M1178.65,1105.66l1.08,6.93s3,2.11,3.76-.45c.56-1.84.55-6.79.55-6.79Z" fill="url(#linear-gradient-136)"/><polygon points="1212.6 1106.13 1209.68 1114.12 1205.43 1113.44 1206.41 1106.05 1212.6 1106.13" fill="url(#linear-gradient-137)"/><path d="M1208.35,1118.51c-2-2.44-3.89-2.22-4.26-3.89a3.44,3.44,0,0,1,1.73-3.55c1.72-.86,3.79.49,4.26.79,3.18,2.07,2.31,5.3,5.31,6.7a8,8,0,0,1,2.57,1.53c.43.4,1.49,1.39,1.24,2.08s-2.18.76-4,.74c-2.16,0-3.23-.05-4.27-.7C1209.51,1121.32,1209.94,1120.4,1208.35,1118.51Z" fill="url(#linear-gradient-138)"/><path d="M1155.92,939.83a227.9,227.9,0,0,0,5.72,41.11c2.82,12.07,4.36,14.14,5.34,22.5,2.13,18.21-3.69,21-4.33,41.6a125.78,125.78,0,0,0,8.27,47.63,130.57,130.57,0,0,0,6.21,14.17c2.12,1.77,5.3,1,8.65.25.8-20.68,1.93-40.16,2.73-60.84l10-93.49Z" fill="url(#linear-gradient-139)"/><path d="M1185.78,1107.09c.8-20.68,1.93-40.16,2.73-60.84l10-93.49-42.58-12.93c0,1.06.12,2.09.19,3.14,20.15,16.75,24.31,30.28,24.31,39.56,0,11.26-6,17-4.47,33.27,1.11,11.65,4.66,13.63,4.88,24.16.29,13.56-5.36,21.31-8,29.2-2.58,7.63-3.32,18.38,2.3,33.52.73,1.56,1.41,3,2,4.16C1179.25,1108.61,1182.43,1107.85,1185.78,1107.09Z" opacity="0.3" fill="url(#linear-gradient-140)" style="mix-blend-mode:multiply"/><path d="M1180,951.88a159.89,159.89,0,0,1,24.26,40.51c5.06,12.33,8.73,21.57,7.58,33.53-1.27,13.17-7.24,17.91-11.2,29.13-3.85,10.89-5.73,27.65,4.31,52.58l7.58,2.62c1.67-6.74,4.39-16.82,8.45-28.82a391.22,391.22,0,0,1,18.22-44.29c7.64-17.12,8.41-47.68-23.37-106.65Z" fill="url(#linear-gradient-141)"/><path d="M1296.75,801.85l-10.09-7.06c-4.09,25.14-13.38,35-21.28,39.33-19.05,10.41-36.05-8.14-72.52-.57-10,2.09-27.56,6-37.28,20.29-2.55,3.76-3.46,6.61-7.7,33.6-5.41,34.51-5.61,40.53-4.84,48,1.4,13.6,2.24,21.84,8.51,29.13,16.65,19.36,52,9.38,56.47,8.06,8.19-2.42,20.93-6.2,26-17,2.38-5.1,2.13-9.76-1.53-28.39-7.25-36.91-8.18-39.3-6.15-43.34,6.82-13.64,28.46-5.84,46.74-18.52C1283.76,857.9,1295.8,841.74,1296.75,801.85Z" fill="#fff"/><path d="M1191.44,967.67c3.56-7.32-1.23-14.07,4-22.86,6.7-11.21,18.76-7.4,23.3-15.68,7.76-14.17-22.79-33.92-16.58-56.47,3-10.77,13.31-18.56,22-21.51,19.19-6.56,31.75,10.15,49.74,4.93A31,31,0,0,0,1288,847c-4.38,9.23-9.82,14.81-14.94,18.37-18.28,12.68-39.92,4.88-46.74,18.52-2,4-1.1,6.43,6.15,43.34,3.66,18.63,3.91,23.29,1.53,28.39-5.06,10.82-17.8,14.6-26,17a93.47,93.47,0,0,1-27,3.71C1186.78,974,1189.86,970.89,1191.44,967.67Z" opacity="0.3" fill="url(#linear-gradient-142)" style="mix-blend-mode:multiply"/><path d="M1452,711.78a23.51,23.51,0,1,1-47,0c0-11.1,17.18-40.12,22.16-48.31a1.56,1.56,0,0,1,2.68,0C1434.77,671.66,1452,700.68,1452,711.78Z" fill="url(#linear-gradient-143)"/><path d="M1420.94,707.79c1.24-10.16,11.17-14.2,14-28a33.55,33.55,0,0,0,.69-6.38c-2.43-4.27-4.55-7.81-5.85-9.94a1.56,1.56,0,0,0-2.68,0c-5,8.19-22.16,37.21-22.16,48.31a23.51,23.51,0,0,0,23.5,23.51,23.22,23.22,0,0,0,7.16-1.12C1422.92,722.88,1420.16,714.23,1420.94,707.79Z" opacity="0.6" fill="url(#linear-gradient-144)" style="mix-blend-mode:multiply"/><path d="M647.74,1033a1.56,1.56,0,0,1-1.56-1.57V597.85a1.57,1.57,0,0,1,3.13,0v433.61A1.57,1.57,0,0,1,647.74,1033Z" fill="#8ca2ae"/><path d="M458.31,1024.12a1.57,1.57,0,0,1-1.56-1.57V597.85a1.57,1.57,0,0,1,3.13,0v424.7A1.57,1.57,0,0,1,458.31,1024.12Z" fill="#8ca2ae"/><path d="M477.44,1083.85a1.47,1.47,0,0,1-.36,0,1.56,1.56,0,0,1-1.16-1.88L589.67,601.38a1.57,1.57,0,0,1,3.05.72L479,1082.65A1.56,1.56,0,0,1,477.44,1083.85Z" fill="#daf3fc"/><path d="M301.46,1060.23a1.72,1.72,0,0,1-.39,0,1.57,1.57,0,0,1-1.13-1.91L416.49,601.36a1.57,1.57,0,0,1,3,.77L303,1059.05A1.57,1.57,0,0,1,301.46,1060.23Z" fill="#daf3fc"/><polygon points="411.33 602.13 592.77 606.02 650.9 602.13 650.9 593.57 515.71 590.83 411.33 593.57 411.33 602.13" fill="#bbd6e8"/><polygon points="411.33 602.13 592.77 606.02 592.77 597.46 411.33 593.57 411.33 602.13" fill="url(#linear-gradient-145)"/><path d="M566.63,707.08h-.09l-170.93-9.52a1.57,1.57,0,0,1,.18-3.13L566.72,704a1.57,1.57,0,0,1-.09,3.13Z" fill="#daf3fc"/><path d="M544,802.61h-.11L370.09,791a1.56,1.56,0,0,1-1.46-1.67,1.58,1.58,0,0,1,1.67-1.46l173.82,11.6a1.57,1.57,0,0,1-.1,3.13Z" fill="#daf3fc"/><path d="M521.53,897.59h-.12L346.33,884.25a1.56,1.56,0,1,1,.24-3.12l175.08,13.33a1.57,1.57,0,0,1-.12,3.13Z" fill="#daf3fc"/><path d="M499.18,992H499L322.88,976.31a1.56,1.56,0,0,1-1.42-1.7,1.59,1.59,0,0,1,1.7-1.42L499.32,988.9a1.57,1.57,0,0,1-.14,3.13Z" fill="#daf3fc"/><path d="M566.49,587.15s15,6.82,15.26,7.91-9.65-.36-13.69-.21-7.37-1-7-2.74,1.78-6,1.78-6Z" fill="url(#linear-gradient-146)"/><path d="M567,581.62l-.91,6.75s-2.38.85-4-.15l-.68-7.41Z" fill="url(#linear-gradient-147)"/><path d="M496.36,581.78l-1.74,2.8a3.31,3.31,0,0,0-.4,2.62c.61,2.33,1.83,6.87,2.36,8.06.72,1.61,10.43,2.57,10.43,2.57s.87-1.22-1.15-2.69-3.31-1.71-4-3.88-1.19-8.31-1.19-8.31Z" fill="url(#linear-gradient-148)"/><path d="M503.63,574.66c-.64.5-3.76,10-3.76,10s-1,1.29-2.93-.61-.87-.86-.87-.86l.36-9.31Z" fill="url(#linear-gradient-149)"/><path d="M575.3,445.85c.79,20.16.82,42.06-.33,65.46-1.31,26.34-3.94,50.69-7.24,72.77q-1.85.06-3.87,0c-.91,0-1.8-.07-2.65-.12a165.59,165.59,0,0,1-5.56-17.79,170.73,170.73,0,0,1-3.88-20.83c-2.9-22.83.49-24.82-1.85-41.74-2.08-15-5-15.57-8.5-36.84-3.77-23.09-1-26.55.4-27.8C547.62,433.63,561.24,437.26,575.3,445.85Z" fill="url(#linear-gradient-150)"/><path d="M541.82,439c5.53-5.08,18.18-2,31.54,5.75-15.37,16.6-17.05,27.37-15.21,34.36,2.09,7.9,8.42,10.18,8.39,18.81,0,10.62-9.61,13.43-9.4,24.66.13,7.43,4.34,7.35,5.34,16.53,1.17,10.85-4.33,14.59-2.55,22.62.77,3.46,3,8,9.19,12.62q-.68,5-1.39,9.77-1.85.06-3.87,0c-.91,0-1.8-.07-2.65-.12a165.59,165.59,0,0,1-5.56-17.79,170.73,170.73,0,0,1-3.88-20.83c-2.9-22.83.49-24.82-1.85-41.74-2.08-15-5-15.57-8.5-36.84C537.65,443.67,540.46,440.21,541.82,439Z" opacity="0.3" fill="url(#linear-gradient-151)" style="mix-blend-mode:multiply"/><path d="M565.78,445.51a452.83,452.83,0,0,0-62,132.81,8,8,0,0,1-4.43.69,8.26,8.26,0,0,1-5-2.71,130.36,130.36,0,0,1-1.15-32.14A111.21,111.21,0,0,1,497.65,520c3.65-11.78,6.17-12.45,10.93-24.91,4.95-12.94,3.75-16.17,8.49-32.37a213.65,213.65,0,0,1,10.58-28.39Z" fill="url(#linear-gradient-152)"/><path d="M619.66,418.11c-.11,4.7-7.84,8.87-14.06,10.15-14.54,3-31.44-7.53-39.48-19.21-1.58-2.29-3.33-5.07-3.75-4.86-1,.49,7.83,14.85,11.66,31.19,2,8.36,1.46,12.28,5.11,17.84.82,1.26,1.84,2.57,1.48,4.06-.88,3.74-9.42,4.74-15.35,5.42a136.16,136.16,0,0,1-17.87.6c-9.24-.11-10-.59-12.07.45-6.42,3.17-6,10.73-10.8,11.75-4.06.85-8.19-3.67-9.5-5.11-6.81-7.45-6.46-16.47-7.69-25.55C504.49,423.72,493,400.6,481.69,386c-3.42-4.44-5.79-6.77-5.95-10.9-.46-12.12,18.72-25.55,34.71-27.13a119.89,119.89,0,0,1,19.59.36c2.94.27,6.07.67,9.44,1.25,8.16,1.41,13.85,2.39,19.65,5,23.37,10.63,18.33,34.42,43.64,50.81C611.48,411,619.78,413.18,619.66,418.11Z" fill="#fff"/><path d="M616.45,426.47s5.95-.61,9.5-2.14,5.84.65,5.52,2.16-6.16,3.63-8.49,3.71S616.45,426.47,616.45,426.47Z" fill="url(#linear-gradient-153)"/><path d="M488.28,458.27c-6.39.59-20.78.88-31-8.51-17-15.63-8.65-45.49-2.78-58.34,6.73-14.73,17.47-23,24-28,8.1-6.23,13-10,19-9.2,15.42,2.16,26.17,33.72,17.73,42.79-2.76,3-5.51,1.29-13.52,3.86-2.61.84-22.07,7.09-25.43,21.45C474,432.36,480,444.11,490.8,452Z" fill="#fff"/><path d="M497.52,354.21s8-10.73,44.23-2.27l3.77,12.52a2.22,2.22,0,0,1-2.43,2.84C533.73,366,507.72,361.7,497.52,354.21Z" fill="url(#linear-gradient-154)"/><path d="M531.21,320.24s-1.94,11-6.45,18.8c-4.08,7.07-21,9.65-24.51,10.88s5.33,7.36,14.74,9.56,24.34,5.27,29.72,2.3,1.25-8.84-5.23-12.23-.85-13.9,1.14-19.78S531.21,320.24,531.21,320.24Z" fill="url(#linear-gradient-155)"/><path d="M542.84,312.76c9.09-8,11.13-30.29,5.85-35.42-1.51-1.47-2.9-.85-23.61,9.09-10.29,4.94-15.34,7.58-16.89,13.26a22.32,22.32,0,0,0,.56,11.92c.63,1.93,1.83,4.33,4.48,8.94,2.34,4.08,2.19,3.94,2.91,5.13a63.19,63.19,0,0,0,11,13.3,51.47,51.47,0,0,1,1.53-7.34,40.48,40.48,0,0,1,3.58-8.68C535.79,317,539.89,315.36,542.84,312.76Z" fill="url(#linear-gradient-156)"/><path d="M521.73,333.16s7.6,11.27,21.63,9.7c12.56-1.4,13.1-29.73,4.78-35.36-2.78-1.87-8.2-2.45-12.51-1-2.55.84-3.37,2-7.56,3.25-3.87,1.2-5,.82-6.13,1.87-1.42,1.31-2.36,4.4.49,12.55-2.52-2.32-5.45-3.12-7.45-2.07a4.4,4.4,0,0,0-1.6,1.72C511.77,327.09,514.91,331.08,521.73,333.16Z" fill="url(#linear-gradient-157)"/><path d="M559.93,452.9c-7.25-4.56-8.33-9.19-16.44-12.31-10.54-4-15.59,1.14-20.82-3-6.22-4.95-.75-13.62-5.43-28.62-.8-2.55-6.84-21.89-20.59-24.33-6.42-1.13-14.88,1.35-18.13,6.79-2.55,4.26-.16,7.42-3.25,12.12s-6.81,3.56-10.76,7.49c-6.26,6.23-7.19,19.33-1.51,26.73,2.66,3.45,6.1,4.81,12.57,7.36a60.81,60.81,0,0,0,10.8,3.14c-7.94-7.58-12.08-17.37-10.07-25.94,2.09-8.95,10.44-14.75,17.07-18.05,6.67,12.48,12.13,26.94,14,40.58,1.23,9.08.88,18.1,7.69,25.55,1.31,1.44,5.44,6,9.5,5.11,4.83-1,4.38-8.58,10.8-11.75,2.1-1,2.83-.56,12.07-.45a136.16,136.16,0,0,0,17.87-.6c5.27-.61,12.6-1.47,14.78-4.28C570.53,458.19,564.17,455.56,559.93,452.9Z" opacity="0.3" fill="url(#linear-gradient-158)" style="mix-blend-mode:multiply"/><path d="M599.24,417.44c-10.56-2.36-14.76-2.27-20-6.46-8.7-7-10-17.63-15.08-17.49-2.39.07-4.32,2.51-5.7,4.9,1.28,2,2.56,4,3.83,6,0-.07,0-.13.07-.16.42-.21,2.17,2.57,3.75,4.86,8,11.68,24.94,22.22,39.48,19.21,4.17-.86,9-3,11.78-5.76A178.9,178.9,0,0,0,599.24,417.44Z" opacity="0.3" fill="url(#linear-gradient-159)" style="mix-blend-mode:multiply"/><path d="M470.59,478.69l-1.44-3.19a9.82,9.82,0,0,1,5.35-13.15l205.89-85.18L689,398.46,484.2,483.92A10.53,10.53,0,0,1,470.59,478.69Z" fill="#a1bcc6"/><path d="M885.46,297.39c-22.43-62.51-89.73-95-150.84-70.78-62.23,24.63-92.16,97.54-66.38,161,25.18,62,93.65,90.14,152.52,64.55C878.61,427.06,907.37,358.48,885.46,297.39ZM686.16,380.2c-21.37-53.16,3.68-114.08,55.63-134.81,51.17-20.42,107.77,6.55,126.78,59,18.65,51.46-5.58,109.33-54.45,130.42C764.54,456.23,707.11,432.31,686.16,380.2Z" fill="#a1bcc6"/><path d="M680.39,377.17,654.14,388c-1,8.81-4.15,14.1-7.49,17.47-12.57,12.65-32,2.06-56.18,17.81-12.12,7.9-9.29,11.9-20.81,17.71-19,9.61-29.14-.16-46,8.53-17,8.79-17.29,24.26-27.4,24.68-4.32.18-10.15-2.41-17.47-13.67l-4.31,1.79a9.82,9.82,0,0,0-5.35,13.15l1.44,3.19a10.53,10.53,0,0,0,13.61,5.23L689,398.46Z" fill="#bbd6e8" opacity="0.3" style="mix-blend-mode:multiply"/><path d="M820,443.11c-51.29,22.17-110.73-2.53-132.45-56.45-22.17-55.05,3.77-118.15,57.6-139.6,53-21.11,111.54,6.86,131.18,61.16C895.56,361.45,870.5,421.28,820,443.11Z" fill="#fff" opacity="0.1"/><path d="M890.1,302.49c-22.43-62.51-89.73-95-150.84-70.78-62.23,24.63-92.16,97.54-66.38,161,25.18,62,93.65,90.15,152.52,64.56C883.25,432.16,912,363.58,890.1,302.49ZM690.8,385.3c-21.37-53.16,3.68-114.08,55.63-134.81,51.17-20.42,107.77,6.55,126.78,59,18.65,51.46-5.58,109.33-54.44,130.42C769.18,461.33,711.75,437.41,690.8,385.3Z" fill="url(#linear-gradient-160)"/><path d="M884.14,305c-21.23-59-84.75-89.46-142.34-66.61-58.58,23.26-86.78,91.91-62.57,151.75,23.68,58.51,88.23,85.16,143.83,61.06C877.74,427.46,904.91,362.66,884.14,305ZM690.8,385.3c-21.37-53.16,3.68-114.08,55.63-134.81,51.17-20.42,107.77,6.55,126.78,59,18.65,51.46-5.58,109.33-54.44,130.42C769.18,461.33,711.75,437.41,690.8,385.3Z" fill="#bad1dd"/><path d="M488.82,456.92l1.42-3.54a7.25,7.25,0,0,0,4.23-1.24,5.5,5.5,0,0,1,3.41-.82c.54.14,2.56.05.26,1.16s-2.29,1.92-1.32,2.82,4.63,2.84,5.94,2.93-1.05,2.13-2.38,2.4a8.24,8.24,0,0,1-6.21-1C493.19,459.07,488.82,456.92,488.82,456.92Z" fill="url(#linear-gradient-161)"/><path d="M686.94,1174.18c0,12.73-8.61,25.24-18,25.24s-17-10.33-17-23.07,7.61-23.06,17-23.06S686.94,1161.44,686.94,1174.18Z" fill="url(#linear-gradient-162)"/><ellipse cx="672.44" cy="1178.09" rx="17" ry="22.19" fill="#80a6b7"/><ellipse cx="672.44" cy="1178.09" rx="7" ry="9.14" fill="#bbd6e8"/><path d="M718.3,1225.18a1.57,1.57,0,0,1-.84-.24l-71-43.41a1.62,1.62,0,0,1,.7-3l337.11-29.35a1.64,1.64,0,0,1,.66.08l98.25,33.4a1.62,1.62,0,0,1,1.09,1.71,1.64,1.64,0,0,1-1.44,1.43l-364.34,39.36Zm-66-43.85,66.35,40.57,356.53-38.52-91-30.94Z" fill="#9dbbce"/><path d="M718.3,1225.18a1.62,1.62,0,0,1-1.62-1.62V953.1l-67.77-14.22v241.27a1.62,1.62,0,0,1-3.24,0V936.89a1.61,1.61,0,0,1,2-1.58l71,14.9a1.61,1.61,0,0,1,1.29,1.58v271.77A1.62,1.62,0,0,1,718.3,1225.18Z" fill="#9dbbce"/><path d="M1082.65,1185.82a1.63,1.63,0,0,1-1.62-1.62V926.51l-95.78-5v229.28a1.62,1.62,0,0,1-3.24,0v-231a1.6,1.6,0,0,1,.51-1.18,1.65,1.65,0,0,1,1.19-.44l99,5.19a1.63,1.63,0,0,1,1.53,1.62V1184.2A1.63,1.63,0,0,1,1082.65,1185.82Z" fill="#9dbbce"/><path d="M647.29,938.5a1.62,1.62,0,0,1-.08-3.23l336.34-17.1a1.62,1.62,0,0,1,.16,3.23L647.37,938.5Z" fill="#9dbbce"/><path d="M915.63,766.83v380.4a39.1,39.1,0,0,0,78.2,0V766.83Z" fill="url(#linear-gradient-163)"/><path d="M954.73,1183.3a36.11,36.11,0,0,1-36.07-36.07v-260H990.8v260A36.11,36.11,0,0,1,954.73,1183.3Z" fill="url(#linear-gradient-164)"/><ellipse cx="954.73" cy="887.25" rx="36.07" ry="10.21" fill="url(#linear-gradient-165)"/><path d="M944.29,1154.82c-6.59-24.32,14.52-36.52,17.28-77.29,3.11-46.09-22.53-50.16-23.64-96.39-1.4-58,38.38-74.7,25.46-119.11-7.27-25-21.88-26.74-30.92-57.29a118.68,118.68,0,0,1-4.66-37.91H915.63v380.4a39.1,39.1,0,0,0,51.86,37C953.09,1174.32,946.79,1164,944.29,1154.82Z" fill="#fff" opacity="0.5" style="mix-blend-mode:soft-light"/><path d="M999.29,760.18v0h-5.68c-7.63-4-22.18-6.67-38.88-6.67h0c-16.7,0-31.25,2.69-38.88,6.67h-5.67v0a15.17,15.17,0,0,0,0,6.77V768h.3c2.57,6.48,21.4,11.52,44.25,11.52h0c22.85,0,41.68-5,44.25-11.52,0,0,0-.07,0-.11l.06-.19A15.39,15.39,0,0,0,999.29,760.18Z" fill="url(#linear-gradient-166)"/><ellipse cx="954.73" cy="760.46" rx="44.56" ry="11.22" fill="url(#linear-gradient-167)"/><ellipse cx="954.73" cy="760.46" rx="38.54" ry="9.7" fill="url(#linear-gradient-168)"/><path d="M818.56,771.07v380.4a39.1,39.1,0,1,0,78.2,0V771.07Z" fill="url(#linear-gradient-169)"/><path d="M857.66,1187.54a36.11,36.11,0,0,1-36.07-36.07V896.41h72.14v255.06A36.11,36.11,0,0,1,857.66,1187.54Z" fill="url(#linear-gradient-170)"/><ellipse cx="857.66" cy="896.41" rx="36.07" ry="10.05" fill="url(#linear-gradient-171)"/><path d="M847.22,1159.06c-6.59-24.32,14.52-36.52,17.28-77.29,3.11-46.09-22.53-50.16-23.64-96.38-1.4-58,38.38-74.7,25.46-119.12-7.27-25-21.88-26.74-30.92-57.29a118.64,118.64,0,0,1-4.66-37.91H818.56v380.4a39.08,39.08,0,0,0,51.86,37C856,1178.56,849.72,1168.28,847.22,1159.06Z" fill="#fff" opacity="0.5" style="mix-blend-mode:soft-light"/><path d="M902.22,764.43v0h-5.68c-7.63-4-22.18-6.67-38.88-6.67h0c-16.7,0-31.25,2.69-38.88,6.67H813.1v0a15.21,15.21,0,0,0,0,6.78v1.07h.3c2.57,6.49,21.4,11.52,44.25,11.52h0c22.85,0,41.68-5,44.25-11.52l0-.1.06-.2A15.36,15.36,0,0,0,902.22,764.43Z" fill="url(#linear-gradient-172)"/><ellipse cx="857.66" cy="764.7" rx="44.56" ry="11.22" fill="url(#linear-gradient-173)"/><ellipse cx="857.66" cy="764.7" rx="38.54" ry="9.7" fill="url(#linear-gradient-174)"/><path d="M727.33,774.1v380.41a39.1,39.1,0,0,0,78.2,0V774.1Z" fill="url(#linear-gradient-175)"/><path d="M766.43,1190.58a36.11,36.11,0,0,1-36.07-36.07V936.57H802.5v217.94A36.11,36.11,0,0,1,766.43,1190.58Z" fill="url(#linear-gradient-176)"/><path d="M802.5,936.57c0,8.23-16.15,14.9-36.07,14.9s-36.07-6.67-36.07-14.9,16.15-14.91,36.07-14.91S802.5,928.34,802.5,936.57Z" fill="url(#linear-gradient-177)"/><path d="M756,1162.09c-6.59-24.32,14.52-36.52,17.28-77.29,3.11-46.08-22.53-50.16-23.64-96.38-1.4-58,38.38-74.7,25.46-119.12-7.27-25-21.88-26.74-30.92-57.28a118.74,118.74,0,0,1-4.66-37.92H727.33v380.41a39.09,39.09,0,0,0,51.87,37C764.79,1181.59,758.49,1171.31,756,1162.09Z" fill="#fff" opacity="0.5" style="mix-blend-mode:soft-light"/><path d="M811,767.46v0h-5.68c-7.63-4-22.18-6.67-38.88-6.67h0c-16.7,0-31.25,2.69-38.87,6.67h-5.68v0a15.21,15.21,0,0,0,0,6.78v1.07h.3c2.57,6.49,21.4,11.52,44.25,11.52h0c22.86,0,41.68-5,44.25-11.52l0-.1.06-.2A15.35,15.35,0,0,0,811,767.46Z" fill="url(#linear-gradient-178)"/><ellipse cx="766.43" cy="767.74" rx="44.56" ry="11.22" fill="url(#linear-gradient-179)"/><ellipse cx="766.43" cy="767.74" rx="38.54" ry="9.7" fill="url(#linear-gradient-180)"/><path d="M718.3,953.4a1.61,1.61,0,0,1-.12-3.22l364.35-26.82a1.62,1.62,0,0,1,.24,3.23L718.42,953.4Z" fill="#9dbbce"/><path d="M762.94,1221.18c0,12.73-8.61,25.24-18,25.24s-17-10.33-17-23.07,7.61-23.06,17-23.06S762.94,1208.44,762.94,1221.18Z" fill="url(#linear-gradient-181)"/><ellipse cx="748.44" cy="1225.09" rx="17" ry="22.19" fill="#80a6b7"/><ellipse cx="748.44" cy="1225.09" rx="7" ry="9.14" fill="#bbd6e8"/><path d="M1074.94,1185.18c0,12.73-8.61,25.24-18,25.24s-17-10.33-17-23.07,7.61-23.06,17-23.06S1074.94,1172.44,1074.94,1185.18Z" fill="url(#linear-gradient-182)"/><ellipse cx="1060.44" cy="1189.09" rx="17" ry="22.19" fill="#80a6b7"/><ellipse cx="1060.44" cy="1189.09" rx="7" ry="9.14" fill="#bbd6e8"/><path d="M646.44,939.29s2,53-33,57-29-29-29-29l32.5,1.75s20.8-12,24.15-28.37Z" fill="#fff"/><path d="M646.44,939.29s2,53-33,57-29-29-29-29l32.5,1.75s20.8-12,24.15-28.37Z" opacity="0.3" fill="url(#linear-gradient-183)" style="mix-blend-mode:multiply"/><path d="M488.5,1220.56s-3.48,3.48-2.32,5.8,4.64,8.13,7,10.45,3.48,3.48,7,3.48,3.49-5.8,0-5.8-8.12-11.61-8.12-11.61Z" fill="url(#linear-gradient-184)"/><path d="M494.3,1211.28l-5.8,9.28a2.38,2.38,0,0,0,3.48,2.32l7-7Z" fill="url(#linear-gradient-185)"/><path d="M597.57,1080.17a302,302,0,0,1-99.79,139.23l-7-5.8A99.55,99.55,0,0,1,501.26,1180c12-22.92,26.67-27.73,37.13-46.41,5.77-10.29,11.31-26.66,8.12-52.21Z" fill="url(#linear-gradient-186)"/><path d="M567.31,1080.86a25.45,25.45,0,0,1,1.29,8.52c-.27,12.47-9.88,17.4-14.77,40.1-3.11,14.43.17,15.24-3.17,23.22-6.92,16.57-23.51,19-41.15,31.66a94.1,94.1,0,0,0-15.65,14.22,105,105,0,0,0-3,15l7,5.8a302,302,0,0,0,99.79-139.23Z" opacity="0.3" fill="url(#linear-gradient-187)" style="mix-blend-mode:multiply"/><path d="M656.74,1231a4.12,4.12,0,0,0,2.32,3.48c2.32,1.16,15.08-5.8,16.24-9.29s-3.48-4.64-5.8-2.32C665.83,1226.55,656.74,1231,656.74,1231Z" fill="url(#linear-gradient-188)"/><path d="M655.58,1215.92l5,13.07s-.34,2-3.82,2l-8.12-9.29Z" fill="url(#linear-gradient-189)"/><path d="M624.25,1065.09a444.72,444.72,0,0,0,33.65,152l-9.28,8.12c-9.58-6.68-22.94-18.08-31.33-36-6.61-14.08-4.34-19.83-6.17-32.49-.25-1.75-.52-3.33-.84-4.88a110.66,110.66,0,0,0-3.43-12.52c-2.13-6.18-17.28-30.56-43-60A39.56,39.56,0,0,1,579,1062.77C599.66,1050.68,623.28,1064.5,624.25,1065.09Z" fill="url(#linear-gradient-190)"/><path d="M599.11,946.92c16,2.75,28.21,5.61,33.65,14,5.75,8.86-3.39,15.52-5.88,35-3.8,29.76,13.31,40.87,8.38,70.83a75.68,75.68,0,0,1-3.33,13,30.69,30.69,0,0,1-12.65,15.73,79.86,79.86,0,0,1-16,7.74c-16.24,5.68-24.25,2.38-46.09,3.63-35.74,2-41.09,12.4-57.23,6-16.32-6.44-28.13-23.85-24.67-31.28,2.08-4.46,8.62-1.68,18-7.14,12.09-7.05,10.06-16.67,19.86-24.92,14.08-11.85,27.63.12,39.67-10.19,12.19-10.42,13.64-35.78,8.46-50.87-3.38-9.86-3.44-20.58-6-30.69a6.43,6.43,0,0,1,.15-3.7c2-5.81,12.63-6.93,20.67-7.7A91.63,91.63,0,0,1,599.11,946.92Z" fill="#fff"/><path d="M501.8,1101.52c4.95-3.3,2.27-12.65,9.6-17.61,6.8-4.6,12.11,1.42,22.13-1.65,12.85-4,12.18-16.32,24.5-20.27,8.86-2.84,11.53,2.81,24.31,3.06s29.48-5,40.07-18.55a45.47,45.47,0,0,0,8.38-17.54c3.41,11,7.11,21.67,4.47,37.75a76.6,76.6,0,0,1-4.65,16.44,22.82,22.82,0,0,1-8.09,10.1,80.29,80.29,0,0,1-19.27,9.89c-16.24,5.68-24.25,2.38-46.09,3.63-35.74,2-41.09,12.4-57.23,6-10.43-4.12-19-12.71-22.93-20.31C491.12,1102.76,498.21,1103.91,501.8,1101.52Z" opacity="0.15" fill="url(#linear-gradient-191)" style="mix-blend-mode:multiply"/><path d="M604.35,886.26s8.91,16.72,9.47,28.45-12.68,10.88-12.68,10.88l.5,7.4a16,16,0,0,0,10.47,14l5.22,1.92s-34.09,7.3-52.71-5.85l5.36-.53a16,16,0,0,0,14.39-14.33l.33-3.17S578.78,888.44,604.35,886.26Z" fill="url(#linear-gradient-192)"/><path d="M599,902.89c-1.76-.15-3.21-2.38-4.42-1.72s-1.13,4,0,6.24a8.31,8.31,0,0,0,3.2,3.43,21.6,21.6,0,0,0-3.82,8.64c-1.59,8.48,2.91,15.29,4.78,19.28,8.45,18-4.69,46.41-19.11,60.77-11.72,11.67-17.19,7-24.18,16.5-13.62,18.55,5.18,38.94-1.87,63.91-10.71,38-70.65,49.26-73.14,49.7l-2.65.44c-26.89,4.27-67.65,10.75-96.36-11.33-21.47-16.51-31.32-45.25-29.7-70.57.43-6.65,2.45-31.93,23-52.56,3.27-3.28,22.62-22.62,48.78-22.86,13.86-.12,16.65,4.76,27.25,1.74,14.51-4.13,23.44-17.32,29-25.5,10.2-15,6.06-18.26,13.39-25.66,14.38-14.5,31.24-3.12,46.59-15.92,15.14-12.61,6-29.72,20.62-40.64,15.07-11.26,43.9-7.33,50,6.08C615.7,884.38,604.43,903.33,599,902.89Z" fill="url(#linear-gradient-193)"/><path d="M642.8,936.66s5-7.1,12.07-6.39-3.55,5.68-5,9.94S637.12,941.63,642.8,936.66Z" fill="url(#linear-gradient-194)"/><path d="M713.44,1012.29l3-15,1.11,4.43a.72.72,0,0,0,1.41-.07l.48-3.36s11,2,4,11C717.62,1016.78,713.44,1012.29,713.44,1012.29Z" fill="url(#linear-gradient-195)"/><path d="M620.44,957.29h5.1a9.48,9.48,0,0,1,8.38,5c4.61,8.61,15.58,26.14,32.52,35,23,12,47,16,47,16l4.86.33s-14.86,23.67-54.86,18.67-51-34-51-34Z" fill="#fff"/><g opacity="0.71"><rect x="1055.25" y="309.49" width="2.93" height="143.4" fill="#d7c0f2"/><path d="M1104.52,321.34c-16.84,4.41-30,9.37-39.88,24.12s-7.16,32.36-7.91,48L1104.6,322C1104.57,321.81,1104.55,321.57,1104.52,321.34Z" fill="#d7c0f2"/><path d="M1056.73,393.45c0,.14,0,.27,0,.4,19.92-7.71,36.07-16.43,43.19-27.54s6.43-28,4.7-44.27Z" fill="#d7c0f2"/><path d="M1010.36,356.85c16.84,4.41,30,9.37,39.88,24.12s7.17,32.36,7.92,48l-47.87-71.41C1010.31,357.32,1010.34,357.08,1010.36,356.85Z" fill="#d7c0f2"/><path d="M1058.16,429c0,.14,0,.27,0,.4-19.92-7.71-36.07-16.43-43.19-27.54s-6.43-28-4.7-44.27Z" fill="#d7c0f2"/><path d="M1090.61,269.8c-12.46,3.26-22.16,6.93-29.5,17.84s-5.3,23.93-5.85,35.49l35.4-52.81C1090.64,270.15,1090.62,270,1090.61,269.8Z" fill="#d7c0f2"/><path d="M1055.26,323.13c0,.1,0,.2,0,.3,14.73-5.71,26.67-12.15,31.94-20.37s4.75-20.69,3.47-32.74Z" fill="#d7c0f2"/><path d="M1023.34,295.81c12.45,3.25,22.16,6.92,29.49,17.84s5.3,23.93,5.86,35.49l-35.4-52.82C1023.3,296.15,1023.32,296,1023.34,295.81Z" fill="#d7c0f2"/><path d="M1058.69,349.14c0,.09,0,.19,0,.29-14.73-5.7-26.67-12.15-31.94-20.37s-4.75-20.69-3.47-32.74Z" fill="#d7c0f2"/></g><g id="kIO5W9.tif" opacity="0.64"><path d="M1474.71,171.53c-2.71-4.23-4.74-8.73-5.07-13.82-.94-14.89,10.78-25.33,25.53-22.75a28.67,28.67,0,0,1,23,24.2c1.89,15.58-11.41,27.16-26.87,23.44a32.32,32.32,0,0,1-8.82-3.76c-.18-1.29-.35-2.58-.53-3.88q6.73-6.89,13.48-13.76c1.06-1.08,1.5-2.32.43-3.48s-2.43-.81-3.58.37c-4.46,4.62-9,9.19-13.47,13.77C1477.45,171.91,1476.12,171.27,1474.71,171.53Z" fill="#9157b5"/><path d="M1421.07,174.59c5.68.15,5.58.18,7.3,5.41,6.59,20,19.76,33.7,39.63,40.86,4.49,1.62,4.37.65,4.17,6.09,0,1.16-.14,2.33-.2,3.49-.12,2.36-1,3-3.48,2.36a68.72,68.72,0,0,1-16.93-7.07q-25.56-15.09-34.26-43.48c-.43-1.39-.73-2.82-1-4.25-.6-2.6.12-3.44,2.85-3.4C1419.76,174.61,1420.41,174.6,1421.07,174.59Z" fill="#9459b5"/><path d="M1475.66,203.64c-.15,2.23-.3,3.75-.36,5.27-.11,2.63-1,3.3-3.43,2.49a51.36,51.36,0,0,1-15.93-8.92A55.35,55.35,0,0,1,1438,176.62c-1-2.78-.09-4,2.9-3.87,2,.05,4.07.23,6.1.29a2.48,2.48,0,0,1,2.38,1.91c3.22,8.79,9,15.57,16.53,20.93a34,34,0,0,0,6.87,3.81C1475,200.58,1476.26,201.81,1475.66,203.64Z" fill="#7961e9"/><path d="M1518,174.3c.91-3.13,2.56-6,2.65-9.78,1.33,1.41,2.16,1,3,0,1-1.23,2.3-2.25,3.34-3.46,1.33-1.56,2.41-1.36,3.79,0,7.34,7.32,14.76,14.57,22.14,21.84,4.16,4.1,8.27,8.25,12.49,12.29,1.41,1.35,1.57,2.35.12,3.8q-9.3,9.28-18.45,18.72c-1.29,1.32-2.32,1.42-3.68.07q-16.87-16.72-33.85-33.37c-1-.94-1.22-1.54.23-2.13a13.49,13.49,0,0,0,1.53-.85,60.87,60.87,0,0,0,5.82,5.65c1.75,1.85,3.31,3.92,5.6,5.21,1.5,2.48,3.77,4.21,5.88,6.09a42.36,42.36,0,0,0,5.26,5.2,50.1,50.1,0,0,0,5.75,5.72c1.48,1.5,3,3,4.44,4.5a1.32,1.32,0,0,0,2.21,0q7.73-7.87,15.48-15.7c.65-.66.69-1.18,0-1.82-1.55-1.42-3.06-2.88-4.58-4.32a29.62,29.62,0,0,0-6.26-6.14,17.16,17.16,0,0,0-5.15-4.78c-1.42-2.56-3.7-4.31-5.86-6.17a46.84,46.84,0,0,0-5.24-5.11c-1.15-2-3.23-3.08-4.63-4.82-.88-1.11-1.56-.83-2.43.08-2.29,2.42-4.64,4.79-7,7.12C1519.83,173,1519.28,174.09,1518,174.3Z" fill="#8c5bb5"/><path d="M1471.13,141.83c-1.48,3.19-1.47,3.18-3.94.74L1437.25,113c-2.1-2.08-2.12-2.31-.09-4.38,6-6.09,12-12.14,18-18.28,1.45-1.5,2.49-1.55,4-.07q17.25,17.13,34.62,34.14c1.41,1.39,1.34,2.36,0,3.85-2.32,2.64-4.8,4.64-8.55,4.27,1.38-2,3.28-3.45,4.88-5.22.35-.4,1.1-.82.46-1.42-1.92-1.81-3.57-3.93-5.82-5.39a25.3,25.3,0,0,0-4.81-4.72,34.38,34.38,0,0,0-6.18-6.17,38.79,38.79,0,0,0-5.26-5.15,32,32,0,0,0-6.27-6.15c-1.3-1.46-2.62-2.91-3.88-4.39-.8-.92-1.39-.67-2.14.1q-7.71,7.89-15.49,15.72c-.66.67-1,1.21-.11,2,1.57,1.4,3.08,2.87,4.62,4.32,1.89,2.11,3.68,4.32,6.16,5.81a16.66,16.66,0,0,0,5.16,5.11,21,21,0,0,0,5.83,5.79,26.37,26.37,0,0,0,5.37,5.49A24.34,24.34,0,0,0,1471.13,141.83Z" fill="#8c5bb5"/><path d="M1520,155.15a31.82,31.82,0,0,0-10.76-16.36,30.47,30.47,0,0,0-10-5.4c-.46-.15-1.17-.08-1.3-.64-.18-.73.62-.89,1-1.2A15.86,15.86,0,0,1,1521.54,153C1521.15,153.6,1520.72,154.17,1520,155.15Z" fill="#9459b5"/><path d="M1517.18,187.06a60.87,60.87,0,0,1-5.82-5.65A21.61,21.61,0,0,0,1517,175a1.25,1.25,0,0,1,1-.71c1.28-.21,1.83-1.35,2.64-2.14,2.37-2.33,4.72-4.7,7-7.12.87-.91,1.55-1.19,2.43-.08,1.4,1.74,3.48,2.83,4.63,4.82-.39.15-.9.2-1.16.47C1528.1,175.86,1522.39,181.22,1517.18,187.06Z" fill="#9982ff"/><path d="M1471.13,141.83a24.34,24.34,0,0,1-3.4-3.56c.75,0,1.17-.51,1.63-1q7.23-7.33,14.46-14.65a2.39,2.39,0,0,0,.91-2.11c2.25,1.46,3.9,3.58,5.82,5.39.64.6-.11,1-.46,1.42-1.6,1.77-3.5,3.25-4.88,5.22A26.93,26.93,0,0,0,1471.13,141.83Z" fill="#9982ff"/><path d="M1474.71,171.53c1.41-.26,2.74.38,4.14.33A11.87,11.87,0,0,0,1482,175c.18,1.3.35,2.59.53,3.88-.6,1.86-1,3.79-2.7,5.09a7,7,0,0,1-8,.6,7.14,7.14,0,0,1-3.32-7.49C1469.09,173.94,1471.13,172.13,1474.71,171.53Zm-4.06,7.07a4.64,4.64,0,0,0,4.8,4.77,4.89,4.89,0,0,0,4.86-5.09,5.49,5.49,0,0,0-5-4.93C1472.85,173.28,1470.63,175.76,1470.65,178.6Z" fill="#7961e9"/><path d="M1482,175a11.87,11.87,0,0,1-3.14-3.1c4.49-4.58,9-9.15,13.47-13.77,1.15-1.18,2.39-1.64,3.58-.37s.63,2.4-.43,3.48Q1488.71,168.07,1482,175Z" fill="#9982ff"/><path d="M1517.18,187.06c5.21-5.84,10.92-11.2,16.37-16.81.26-.27.77-.32,1.16-.47a46.84,46.84,0,0,1,5.24,5.11c-2.28,3.11-5.17,5.66-7.88,8.35-3.06,3-5.76,6.48-9.29,9C1520.49,191,1518.93,188.91,1517.18,187.06Z" fill="#7961e9"/><path d="M1522.78,192.27c3.53-2.55,6.23-6,9.29-9,2.71-2.69,5.6-5.24,7.88-8.35,2.16,1.86,4.44,3.61,5.86,6.17-6,5.48-11.62,11.35-17.15,17.31C1526.55,196.48,1524.28,194.75,1522.78,192.27Z" fill="#9982ff"/><path d="M1557.22,192c1.52,1.44,3,2.9,4.58,4.32.69.64.65,1.16,0,1.82q-7.75,7.83-15.48,15.7a1.32,1.32,0,0,1-2.21,0c-1.46-1.52-3-3-4.44-4.5,3.65-4.12,7.84-7.7,11.53-11.78C1553,195.51,1554.53,193.05,1557.22,192Z" fill="#7961e9"/><path d="M1557.22,192c-2.69,1.07-4.22,3.53-6,5.52-3.69,4.08-7.88,7.66-11.53,11.78a50.1,50.1,0,0,1-5.75-5.72,1.25,1.25,0,0,0,.38-.2q8.19-8.13,16.35-16.31c.25-.25.21-.8.31-1.21A29.62,29.62,0,0,1,1557.22,192Z" fill="#9982ff"/><path d="M1551,185.84c-.1.41-.06,1-.31,1.21q-8.14,8.19-16.35,16.31a1.25,1.25,0,0,1-.38.2,42.36,42.36,0,0,1-5.26-5.2c5.53-6,11.14-11.82,17.15-17.3A17.16,17.16,0,0,1,1551,185.84Z" fill="#7961e9"/><path d="M1484.73,120.53a2.39,2.39,0,0,1-.91,2.11q-7.24,7.3-14.46,14.65c-.46.47-.88,1-1.63,1a26.37,26.37,0,0,1-5.37-5.49c4.21-4.9,9-9.23,13.46-13.9,1.17-1.23,2.3-2.64,4.1-3.07A25.3,25.3,0,0,1,1484.73,120.53Z" fill="#7961e9"/><path d="M1462.21,98.34a32,32,0,0,1,6.27,6.15,129.56,129.56,0,0,0-10.77,10.58c-2.13,2.25-4.6,4.2-6.34,6.81-2.48-1.49-4.27-3.7-6.16-5.81a9.13,9.13,0,0,0,1.43-1c4.9-5,9.77-10,14.66-15.07C1461.75,99.53,1462.26,99.09,1462.21,98.34Z" fill="#9982ff"/><path d="M1479.92,115.81c-1.8.43-2.93,1.84-4.1,3.07-4.45,4.67-9.25,9-13.46,13.9a21,21,0,0,1-5.83-5.79c6-5.47,11.67-11.37,17.21-17.35A34.38,34.38,0,0,1,1479.92,115.81Z" fill="#9982ff"/><path d="M1462.21,98.34c0,.75-.46,1.19-.91,1.66-4.89,5-9.76,10.06-14.66,15.07a9.13,9.13,0,0,1-1.43,1c-1.54-1.45-3-2.92-4.62-4.32-.86-.77-.55-1.31.11-2q7.77-7.83,15.49-15.72c.75-.77,1.34-1,2.14-.1C1459.59,95.43,1460.91,96.88,1462.21,98.34Z" fill="#7961e9"/><path d="M1473.74,109.64c-5.54,6-11.16,11.88-17.21,17.35a16.66,16.66,0,0,1-5.16-5.11c1.74-2.61,4.21-4.56,6.34-6.81a129.56,129.56,0,0,1,10.77-10.58A38.79,38.79,0,0,1,1473.74,109.64Z" fill="#7961e9"/><path d="M1470.65,178.6c0-2.84,2.2-5.32,4.7-5.25a5.49,5.49,0,0,1,5,4.93,4.89,4.89,0,0,1-4.86,5.09A4.64,4.64,0,0,1,1470.65,178.6Z" fill="#9982ff"/></g><g opacity="0.78"><circle cx="1647.65" cy="149.23" r="38.58" transform="translate(377.06 1208.78) rotate(-45)" fill="#ef7cba"/><ellipse cx="1649.3" cy="122.46" rx="2.12" ry="8.46" transform="translate(1470.9 1766.66) rotate(-88.05)" fill="#be508e"/><path d="M1638.61,151.27c0,1.67-4.5,2.87-9.94,2.69s-9.79-1.69-9.73-3.36,4.5-2.87,9.94-2.68S1638.67,149.61,1638.61,151.27Z" fill="#be508e"/><path d="M1645.09,134.71c0,1.17-6.09,1.91-13.51,1.66s-13.41-1.4-13.37-2.57,6.09-1.91,13.51-1.66S1645.13,133.55,1645.09,134.71Z" fill="#be508e"/><path d="M1665.5,144.19c0,.76-4.39,1.23-9.75,1.05s-9.67-1-9.65-1.71,4.39-1.24,9.75-1.06S1665.53,143.42,1665.5,144.19Z" fill="#be508e"/><path d="M1655.19,161.88c0,.67-3.73,1.09-8.28.93s-8.21-.82-8.19-1.49,3.73-1.08,8.28-.93S1655.21,161.22,1655.19,161.88Z" fill="#be508e"/><path d="M1649,110.67a38.47,38.47,0,0,0-4.17.09,30.75,30.75,0,1,1-35.34,33,40.3,40.3,0,0,0-.37,4.14A38.58,38.58,0,1,0,1649,110.67Z" fill="#be508e"/></g></g></g></svg>