<?xml version="1.0" encoding="UTF-8"?>
<svg width="24px" height="24px" viewBox="0 0 24 24" version="1.1" xmlns="http://www.w3.org/2000/svg" xmlns:xlink="http://www.w3.org/1999/xlink">
    <!-- Generator: Sketch 52.5 (67469) - http://www.bohemiancoding.com/sketch -->
    <title>Artboard</title>
    <desc>Created with Sketch.</desc>
    <g id="Page-1" stroke="none" stroke-width="1" fill="none" fill-rule="evenodd">
        <g id="Artboard" fill="#161819">
            <path d="M9.30853175,17.14647 L9.30853175,24 L7,24 L7,6.13277134 C7,4.70810668 7.1955999,3.59326008 7.58680556,2.7881981 C7.97801122,1.98313612 8.65078888,1.31717861 9.60515873,0.790305585 C10.5595286,0.263432561 11.6213566,0 12.7906746,0 C14.5188578,0 15.8278725,0.486823372 16.7177579,1.46048472 C17.6076433,2.43414607 18.0525794,3.49841361 18.0525794,4.65331928 C18.0525794,5.78293505 17.6936213,6.69335798 16.9756944,7.38461538 C16.2577676,8.07587279 15.4345285,8.50157981 14.5059524,8.66174921 C16.0019916,8.80505867 17.1562459,9.33192379 17.96875,10.2423604 C18.7812541,11.152797 19.1875,12.2739659 19.1875,13.6059009 C19.1875,15.0389956 18.7081728,16.322439 17.749504,17.4562698 C16.7908352,18.5901005 15.4044403,19.1570074 13.5902778,19.1570074 C11.7331256,19.1570074 10.3058912,18.4868349 9.30853175,17.14647 Z M11.359127,7.92834563 C12.9411455,7.92834563 14.0932504,7.65859068 14.8154762,7.11907271 C15.537702,6.57955473 15.8988095,5.79979435 15.8988095,4.77976818 C15.8988095,3.95363128 15.5914383,3.26238424 14.9766865,2.70600632 C14.3619348,2.14962841 13.5945813,1.87144362 12.6746032,1.87144362 C11.874996,1.87144362 11.1807238,2.07797475 10.5917659,2.4910432 C10.0028079,2.90411165 9.6417004,3.36353804 9.50843254,3.86933614 C9.37516468,4.37513425 9.30853175,5.26026765 9.30853175,6.52476291 L9.30853175,11.6206533 C9.30853175,13.0706079 9.41170532,14.1369829 9.61805556,14.8198103 C9.82440579,15.5026378 10.2671924,16.1180162 10.9464286,16.6659642 C11.6256648,17.2139121 12.4080644,17.487882 13.2936508,17.487882 C14.3683916,17.487882 15.2174241,17.1275062 15.8407738,16.4067439 C16.4641235,15.6859816 16.7757937,14.7945259 16.7757937,13.7323498 C16.7757937,12.8556331 16.5458026,12.0695504 16.0858135,11.374078 C15.6258244,10.6786056 15.0583698,10.2065344 14.3834325,9.95785037 C13.7084953,9.7091663 12.8121749,9.58482613 11.6944444,9.58482613 L11.359127,9.58482613 L11.359127,7.92834563 Z" id="β"></path>
        </g>
    </g>
</svg>